<svg width="121" height="119" viewBox="0 0 121 119" fill="none" xmlns="http://www.w3.org/2000/svg">
<path d="M5 5.00031H24.2066C24.9566 5.00031 25.3315 5.00031 25.6028 5.2121C25.8741 5.42389 25.965 5.78767 26.1469 6.51523L31.9334 29.6613C32.2972 31.1165 32.4791 31.844 33.0216 32.2676C33.5641 32.6912 34.3141 32.6912 35.814 32.6912H46.5363" stroke="#C93C4F" stroke-width="10" stroke-linecap="round"/>
<path d="M104.598 94.9957H24.3001C23.0338 94.9957 22.4007 94.9957 22.1014 94.5805C21.8021 94.1652 22.0023 93.5645 22.4027 92.3633L27.5362 76.9627C27.9762 75.6426 28.1963 74.9826 28.72 74.6051C29.2438 74.2276 29.9395 74.2276 31.331 74.2276H76.907" stroke="#C93C4F" stroke-width="10" stroke-linecap="round" stroke-linejoin="round"/>
<path d="M93.7594 74.2276H34.3852C33.4075 74.2276 32.5731 73.5208 32.4124 72.5564L26.0593 34.4379C25.9069 33.5236 26.612 32.6913 27.5389 32.6913H114.146C114.889 32.6913 115.372 33.4736 115.04 34.1385L95.5482 73.122C95.2094 73.7996 94.5169 74.2276 93.7594 74.2276Z" stroke="#C93C4F" stroke-width="10" stroke-linecap="round"/>
<circle cx="89.6359" cy="111.744" r="6.92272" fill="#C93C4F"/>
<circle cx="36.9338" cy="111.744" r="6.92272" fill="#C93C4F"/>
</svg>

