<svg width="43" height="40" viewBox="0 0 43 40" fill="none" xmlns="http://www.w3.org/2000/svg">
<path d="M37.582 8.21042C37.582 10.9311 30.3709 13.1367 21.4755 13.1367C12.5802 13.1367 5.36914 10.9311 5.36914 8.21042M37.582 8.21042C37.582 5.48973 30.3709 3.28418 21.4755 3.28418C12.5802 3.28418 5.36914 5.48973 5.36914 8.21042M37.582 8.21042V31.1995C37.582 33.9254 30.4236 36.1258 21.4755 36.1258C12.5275 36.1258 5.36914 33.9254 5.36914 31.1995V8.21042M37.582 19.705C37.582 22.4308 30.4236 24.6312 21.4755 24.6312C12.5275 24.6312 5.36914 22.4308 5.36914 19.705" stroke="#C93C4F" stroke-width="3.28416" stroke-linecap="round" stroke-linejoin="round"/>
</svg>
