<svg width="39" height="39" viewBox="0 0 39 39" fill="none" xmlns="http://www.w3.org/2000/svg">
<path d="M6.5 6.5H9.81345C10.5634 6.5 10.9384 6.5 11.2096 6.71179C11.4809 6.92359 11.5718 7.28737 11.7537 8.01493L12.2425 9.97014C12.6063 11.4253 12.7882 12.1528 13.3307 12.5764C13.8733 13 14.6232 13 16.1231 13H16.25" stroke="#929292" stroke-width="2" stroke-linecap="round"/>
<path d="M29.25 27.625H12.2702C11.2439 27.625 10.7307 27.625 10.4394 27.3411C10.3563 27.2601 10.2879 27.1652 10.2374 27.0607C10.0601 26.6946 10.2224 26.2078 10.547 25.2341C10.905 24.1601 11.084 23.623 11.4692 23.2719C11.5823 23.1688 11.7068 23.0791 11.8403 23.0044C12.2953 22.75 12.8613 22.75 13.9935 22.75H22.75" stroke="#929292" stroke-width="2" stroke-linecap="round" stroke-linejoin="round"/>
<path d="M26.3889 22.75H14.6943C13.7166 22.75 12.8822 22.0432 12.7215 21.0788L11.6661 14.7466C11.5137 13.8323 12.2188 13 13.1457 13H30.882C31.6253 13 32.1088 13.7823 31.7764 14.4472L28.1778 21.6444C27.839 22.322 27.1465 22.75 26.3889 22.75Z" stroke="#929292" stroke-width="2" stroke-linecap="round"/>
<circle cx="27.625" cy="32.5" r="1.625" fill="#929292"/>
<circle cx="14.625" cy="32.5" r="1.625" fill="#929292"/>
</svg>
