<svg width="18" height="18" viewBox="0 0 18 18" fill="none" xmlns="http://www.w3.org/2000/svg">
<path d="M15.236 3.62747C15.236 4.82954 12.3126 5.80401 8.70638 5.80401C5.10017 5.80401 2.17676 4.82954 2.17676 3.62747M15.236 3.62747C15.236 2.4254 12.3126 1.45093 8.70638 1.45093C5.10017 1.45093 2.17676 2.4254 2.17676 3.62747M15.236 3.62747V13.7847C15.236 14.989 12.334 15.9612 8.70638 15.9612C5.07881 15.9612 2.17676 14.989 2.17676 13.7847V3.62747M15.236 8.70607C15.236 9.91042 12.334 10.8826 8.70638 10.8826C5.07881 10.8826 2.17676 9.91042 2.17676 8.70607" stroke="#1E1E1E" stroke-width="1.45103" stroke-linecap="round" stroke-linejoin="round"/>
</svg>
