<svg width="59" height="63" viewBox="0 0 59 63" fill="none" xmlns="http://www.w3.org/2000/svg">
<path d="M33.0312 20.078C27.3012 16.6263 17.6519 8.73066 24.8949 4.7611C32.1379 0.791546 33.337 13.3184 33.0312 20.078Z" fill="#FFC72B"/>
<path d="M33.0328 20.0778C39.0211 20.2585 50.2182 18.8245 47.0997 11.6432C43.9812 4.46195 36.4224 14.2741 33.0328 20.0778Z" fill="#FFC72B"/>
<mask id="path-3-inside-1_778_2381" fill="white">
<path d="M51.0475 23.4989C53.4845 24.2543 54.848 26.8418 54.0929 29.2788L53.1439 32.3402C52.3885 34.7774 49.8002 36.1407 47.3631 35.3853L46.0385 34.9747C45.9857 35.459 45.8869 35.9455 45.7373 36.4282L40.5592 53.1334C39.3001 57.1953 34.9864 59.4676 30.9244 58.2085L12.0235 52.3499C7.96159 51.0908 5.6893 46.777 6.94837 42.7151L12.1264 26.0099C12.2761 25.5272 12.4697 25.0701 12.7001 24.6409L12.3083 24.5194C9.87114 23.764 8.50776 21.1757 9.26321 18.7386L10.2121 15.6772C10.9678 13.2403 13.5557 11.8776 15.9927 12.633L51.0475 23.4989Z"/>
</mask>
<path d="M51.0475 23.4989C53.4845 24.2543 54.848 26.8418 54.0929 29.2788L53.1439 32.3402C52.3885 34.7774 49.8002 36.1407 47.3631 35.3853L46.0385 34.9747C45.9857 35.459 45.8869 35.9455 45.7373 36.4282L40.5592 53.1334C39.3001 57.1953 34.9864 59.4676 30.9244 58.2085L12.0235 52.3499C7.96159 51.0908 5.6893 46.777 6.94837 42.7151L12.1264 26.0099C12.2761 25.5272 12.4697 25.0701 12.7001 24.6409L12.3083 24.5194C9.87114 23.764 8.50776 21.1757 9.26321 18.7386L10.2121 15.6772C10.9678 13.2403 13.5557 11.8776 15.9927 12.633L51.0475 23.4989Z" fill="#C93C4F"/>
<path d="M54.0929 29.2788L55.5638 29.7348L55.5639 29.7346L54.0929 29.2788ZM47.3631 35.3853L47.819 33.9143L47.3631 35.3853ZM46.0385 34.9747L46.4945 33.5038L44.7101 32.9507L44.5076 34.8078L46.0385 34.9747ZM45.7373 36.4282L47.2082 36.8842L45.7373 36.4282ZM40.5592 53.1334L39.0882 52.6774L40.5592 53.1334ZM6.94837 42.7151L5.47741 42.2591L6.94837 42.7151ZM12.1264 26.0099L13.5974 26.4659L12.1264 26.0099ZM12.7001 24.6409L14.057 25.3691L14.9404 23.723L13.156 23.1699L12.7001 24.6409ZM10.2121 15.6772L8.74123 15.2211L8.74118 15.2212L10.2121 15.6772ZM51.0475 23.4989L50.5915 24.9698C52.2164 25.4735 53.1252 27.1985 52.6219 28.823L54.0929 29.2788L55.5639 29.7346C56.5708 26.485 54.7526 23.0351 51.5034 22.0279L51.0475 23.4989ZM54.0929 29.2788L52.6219 28.8229L51.673 31.8842L53.1439 32.3402L54.6149 32.7961L55.5638 29.7348L54.0929 29.2788ZM53.1439 32.3402L51.673 31.8842C51.1694 33.509 49.4438 34.418 47.819 33.9143L47.3631 35.3853L46.9071 36.8562C50.1567 37.8635 53.6076 36.0457 54.6149 32.7961L53.1439 32.3402ZM47.3631 35.3853L47.819 33.9143L46.4945 33.5038L46.0385 34.9747L45.5826 36.4457L46.9071 36.8562L47.3631 35.3853ZM46.0385 34.9747L44.5076 34.8078C44.4652 35.1965 44.386 35.5861 44.2663 35.9723L45.7373 36.4282L47.2082 36.8842C47.3878 36.3049 47.5062 35.7215 47.5695 35.1417L46.0385 34.9747ZM45.7373 36.4282L44.2663 35.9723L39.0882 52.6774L40.5592 53.1334L42.0302 53.5893L47.2082 36.8842L45.7373 36.4282ZM40.5592 53.1334L39.0882 52.6774C38.081 55.927 34.6299 57.7448 31.3804 56.7376L30.9244 58.2085L30.4685 59.6795C35.3428 61.1904 40.5193 58.4636 42.0302 53.5893L40.5592 53.1334ZM30.9244 58.2085L31.3804 56.7376L12.4795 50.8789L12.0235 52.3499L11.5676 53.8208L30.4685 59.6795L30.9244 58.2085ZM12.0235 52.3499L12.4795 50.8789C9.22993 49.8716 7.41207 46.4206 8.41932 43.171L6.94837 42.7151L5.47741 42.2591C3.96653 47.1335 6.69326 52.3099 11.5676 53.8208L12.0235 52.3499ZM6.94837 42.7151L8.41932 43.171L13.5974 26.4659L12.1264 26.0099L10.6555 25.554L5.47741 42.2591L6.94837 42.7151ZM12.1264 26.0099L13.5974 26.4659C13.7171 26.0797 13.8721 25.7136 14.057 25.3691L12.7001 24.6409L11.3431 23.9126C11.0673 24.4266 10.835 24.9747 10.6555 25.554L12.1264 26.0099ZM12.7001 24.6409L13.156 23.1699L12.7643 23.0485L12.3083 24.5194L11.8524 25.9904L12.2441 26.1118L12.7001 24.6409ZM12.3083 24.5194L12.7643 23.0485C11.1395 22.5448 10.2305 20.8193 10.7342 19.1945L9.26321 18.7386L7.79225 18.2826C6.78499 21.5322 8.60281 24.9831 11.8524 25.9904L12.3083 24.5194ZM9.26321 18.7386L10.7342 19.1945L11.6831 16.1331L10.2121 15.6772L8.74118 15.2212L7.79225 18.2826L9.26321 18.7386ZM10.2121 15.6772L11.683 16.1333C12.1867 14.5089 13.9119 13.6003 15.5368 14.104L15.9927 12.633L16.4487 11.1621C13.1995 10.1549 9.74878 11.9717 8.74123 15.2211L10.2121 15.6772ZM15.9927 12.633L15.5368 14.104L50.5915 24.9698L51.0475 23.4989L51.5034 22.0279L16.4487 11.1621L15.9927 12.633Z" fill="#C93C4F" mask="url(#path-3-inside-1_778_2381)"/>
<path d="M33.82 17.0977L21.9653 55.3425" stroke="#FFC72B" stroke-width="4.62"/>
<path d="M11.8434 26.6699L45.6754 37.1568" stroke="#FFC72B" stroke-width="4.62"/>
</svg>
