<svg width="260" height="77" viewBox="0 0 260 77" fill="none" xmlns="http://www.w3.org/2000/svg">
<path d="M17.6792 55.4496C16.4883 55.4496 15.8723 54.8336 15.8312 53.6016L15.092 36.3536L1.1088 15.2248C0.821333 14.7731 0.657067 14.3624 0.616 13.9928C0.616 13.5821 0.903467 13.192 1.4784 12.8224L8.5624 8.0176C9.13733 7.648 9.65067 7.60693 10.1024 7.8944C10.5541 8.1408 10.9443 8.55146 11.2728 9.1264L20.5128 25.9432L30.3688 9.1264C30.6973 8.55146 31.0875 8.1408 31.5392 7.8944C31.9909 7.60693 32.5043 7.648 33.0792 8.0176L39.7936 12.576C40.3685 12.9456 40.656 13.3768 40.656 13.8696C40.656 14.3213 40.5328 14.732 40.2864 15.1016L26.4264 35.7992L25.8104 53.6016C25.7283 54.8336 25.1123 55.4496 23.9624 55.4496H17.6792ZM39.9664 51.5072C38.3648 49.9467 37.0917 48.0781 36.1472 45.9016C35.2437 43.684 34.792 41.1995 34.792 38.448C34.792 35.6965 35.2437 33.212 36.1472 30.9944C37.0917 28.7768 38.3648 26.8877 39.9664 25.3272C41.568 23.7256 43.4365 22.4936 45.572 21.6312C47.7485 20.7688 50.0688 20.3376 52.5328 20.3376C54.9968 20.3376 57.2965 20.7688 59.432 21.6312C61.6085 22.4936 63.4976 23.7256 65.0992 25.3272C66.7008 26.8877 67.9533 28.7768 68.8568 30.9944C69.8013 33.212 70.2736 35.6965 70.2736 38.448C70.2736 41.1995 69.8013 43.684 68.8568 45.9016C67.9533 48.0781 66.7008 49.9467 65.0992 51.5072C63.4976 53.0267 61.6085 54.1971 59.432 55.0184C57.2965 55.8397 54.9968 56.2504 52.5328 56.2504C50.0688 56.2504 47.7485 55.8397 45.572 55.0184C43.4365 54.1971 41.568 53.0267 39.9664 51.5072ZM44.4632 39.3104C44.4632 41.8976 45.2434 43.992 46.804 45.5936C48.4056 47.1541 50.4589 47.9344 52.964 47.9344C54.196 47.9344 55.3253 47.7291 56.352 47.3184C57.4197 46.9077 58.3232 46.3328 59.0624 45.5936C59.8016 44.8133 60.3765 43.9099 60.7872 42.8832C61.2389 41.8155 61.4648 40.6245 61.4648 39.3104C61.4648 38.0373 61.2389 36.8669 60.7872 35.7992C60.3765 34.7315 59.8016 33.828 59.0624 33.0888C58.3232 32.3085 57.4197 31.7131 56.352 31.3024C55.3253 30.8917 54.196 30.6864 52.964 30.6864C50.3768 30.6864 48.3029 31.4872 46.7424 33.0888C45.2229 34.6493 44.4632 36.7232 44.4632 39.3104ZM97.5306 55.4496C96.2986 55.4496 95.6826 54.8336 95.6826 53.6016L95.621 51.692C94.9229 53.0061 93.8141 54.0944 92.2946 54.9568C90.7752 55.8603 88.8245 56.312 86.4426 56.312C84.8821 56.312 83.4448 56.0451 82.1306 55.5112C80.8576 55.0184 79.7077 54.3203 78.681 53.4168C77.6954 52.5133 76.8536 51.4456 76.1554 50.2136C75.4984 48.9405 75.0261 47.5853 74.7386 46.148C74.4101 44.4643 74.1637 42.6779 73.9994 40.7888C73.8352 38.8587 73.753 36.908 73.753 34.9368C73.753 32.9656 73.7941 30.9739 73.8762 28.9616C73.9584 26.9493 74.0816 24.9987 74.2458 23.1096C74.328 22.4936 74.4922 22.0419 74.7386 21.7544C75.0261 21.4259 75.4778 21.2616 76.0938 21.2616H83.1778C84.4509 21.2616 85.0258 21.8776 84.9026 23.1096C84.5741 26.6413 84.3277 29.9883 84.1634 33.1504C84.0402 36.3125 84.1429 39.2488 84.4714 41.9592C84.6768 43.5197 85.2517 44.7107 86.1962 45.532C87.1818 46.3123 88.4754 46.7024 90.077 46.7024C91.6376 46.7024 92.9106 46.1891 93.8962 45.1624C94.9229 44.0947 95.4157 42.8421 95.3746 41.4048L94.9434 23.1096C94.9434 21.8776 95.5389 21.2616 96.7298 21.2616H104.245C105.477 21.2616 106.072 21.8776 106.031 23.1096L105.415 53.6016C105.415 54.8336 104.799 55.4496 103.567 55.4496H97.5306ZM112.212 64.3816C111.842 64.1763 111.575 63.8888 111.411 63.5192C111.247 63.1496 111.205 62.7595 111.288 62.3488C111.411 61.9792 111.678 61.6917 112.088 61.4864C112.499 61.2811 112.992 60.9731 113.567 60.5624C114.142 60.1928 114.532 59.7411 114.737 59.2072C114.86 58.9197 114.86 58.6733 114.737 58.468C114.655 58.3037 114.491 58.2216 114.244 58.2216C113.587 58.1805 112.951 58.0368 112.335 57.7904C111.76 57.5851 111.247 57.2771 110.795 56.8664C110.343 56.4557 109.973 55.9424 109.686 55.3264C109.44 54.7515 109.316 54.0739 109.316 53.2936C109.357 51.7741 109.932 50.5011 111.041 49.4744C112.15 48.4477 113.485 47.9344 115.045 47.9344C116.893 47.9344 118.31 48.5299 119.296 49.7208C120.322 50.9117 120.856 52.3696 120.897 54.0944C120.938 56.5584 120.322 58.6939 119.049 60.5008C117.776 62.3077 115.969 63.6219 113.628 64.4432C113.053 64.6485 112.581 64.628 112.212 64.3816ZM135.449 34.8136C135.408 38.14 136.106 40.8093 137.544 42.8216C138.981 44.8339 141.116 45.8195 143.95 45.7784C146.743 45.7373 148.734 44.8339 149.925 43.068C151.116 41.2611 151.753 38.5301 151.835 34.8752L152.204 11.1592C152.204 9.9272 152.82 9.3112 154.052 9.3112H160.336C161.568 9.3112 162.184 9.9272 162.184 11.1592L162.368 33.0888C162.41 36.5795 162.06 39.7416 161.321 42.5752C160.582 45.4088 159.432 47.8317 157.872 49.844C156.311 51.8152 154.319 53.3347 151.896 54.4024C149.515 55.5112 146.681 56.0656 143.396 56.0656C137.4 56.0656 132.8 54.1971 129.597 50.46C126.394 46.7229 124.751 41.528 124.669 34.8752L124.3 11.1592C124.3 9.9272 124.895 9.3112 126.086 9.3112H133.848C135.039 9.3112 135.634 9.9272 135.634 11.1592L135.449 34.8136ZM168.513 45.84C169.047 44.9365 169.95 44.8339 171.223 45.532C171.881 45.9016 172.62 46.2712 173.441 46.6408C174.303 47.0104 175.207 47.3595 176.151 47.688C177.096 47.9755 178.061 48.2219 179.047 48.4272C180.073 48.5915 181.1 48.6531 182.127 48.612C183.975 48.5299 185.371 48.2629 186.315 47.8112C187.301 47.3184 187.855 46.6819 187.979 45.9016C188.102 45.1624 187.917 44.5259 187.424 43.992C186.931 43.4171 186.028 43.0269 184.714 42.8216C183.112 42.5341 181.367 42.1851 179.478 41.7744C177.63 41.3637 176.028 40.9325 174.673 40.4808C173.523 40.0701 172.435 39.5979 171.408 39.064C170.423 38.4891 169.56 37.832 168.821 37.0928C168.123 36.3536 167.569 35.4912 167.158 34.5056C166.747 33.52 166.583 32.3907 166.665 31.1176C166.747 29.3928 167.219 27.8733 168.082 26.5592C168.985 25.204 170.156 24.0747 171.593 23.1712C173.071 22.2677 174.735 21.5696 176.583 21.0768C178.431 20.584 180.34 20.3376 182.311 20.3376C184.036 20.2965 185.987 20.4813 188.163 20.892C190.34 21.2616 192.27 21.816 193.954 22.5552C194.981 23.0069 195.309 23.7051 194.939 24.6496L192.907 29.9472C192.742 30.3989 192.455 30.6864 192.044 30.8096C191.634 30.9328 191.202 30.8917 190.751 30.6864C189.56 30.1936 188.225 29.8035 186.747 29.516C185.268 29.2285 183.79 29.1259 182.311 29.208C180.792 29.2901 179.539 29.5776 178.554 30.0704C177.609 30.5221 177.096 31.0971 177.014 31.7952C176.932 32.3701 177.075 32.8219 177.445 33.1504C177.856 33.4379 178.369 33.6843 178.985 33.8896C180.217 34.2592 181.47 34.5877 182.743 34.8752C184.016 35.1627 185.515 35.4707 187.239 35.7992C188.923 36.1277 190.443 36.6 191.798 37.216C193.194 37.7909 194.344 38.5301 195.247 39.4336C196.192 40.296 196.89 41.3021 197.342 42.452C197.835 43.6019 198.04 44.8749 197.958 46.2712C197.835 47.8728 197.301 49.2896 196.356 50.5216C195.453 51.7536 194.241 52.8008 192.722 53.6632C191.202 54.5256 189.478 55.1827 187.547 55.6344C185.617 56.0861 183.605 56.2915 181.511 56.2504C180.279 56.2504 178.985 56.1272 177.63 55.8808C176.316 55.6344 175.022 55.3059 173.749 54.8952C172.476 54.4845 171.244 53.9712 170.053 53.3552C168.903 52.7803 167.897 52.1437 167.035 51.4456C166.501 50.9939 166.193 50.5627 166.111 50.152C166.07 49.7413 166.172 49.3512 166.419 48.9816L168.513 45.84Z" fill="black"/>
<path d="M233.234 23.1578C227.504 19.7061 217.854 11.8105 225.097 7.84091C232.34 3.87135 233.539 16.3982 233.234 23.1578Z" fill="#FFC72B"/>
<path d="M233.233 23.1577C239.222 23.3384 250.419 21.9045 247.3 14.7232C244.182 7.54187 236.623 17.354 233.233 23.1577Z" fill="#FFC72B"/>
<mask id="path-4-inside-1_114_1193" fill="white">
<path d="M251.25 26.5787C253.687 27.3341 255.05 29.9216 254.295 32.3586L253.346 35.42C252.591 37.8572 250.003 39.2206 247.566 38.4651L246.241 38.0546C246.188 38.5388 246.089 39.0253 245.94 39.5081L240.762 56.2132C239.503 60.2751 235.189 62.5474 231.127 61.2884L212.226 55.4297C208.164 54.1706 205.892 49.8569 207.151 45.7949L212.329 29.0898C212.479 28.607 212.672 28.15 212.903 27.7207L212.511 27.5993C210.074 26.8438 208.71 24.2556 209.466 21.8184L210.415 18.757C211.17 16.3201 213.758 14.9575 216.195 15.7129L251.25 26.5787Z"/>
</mask>
<path d="M251.25 26.5787C253.687 27.3341 255.05 29.9216 254.295 32.3586L253.346 35.42C252.591 37.8572 250.003 39.2206 247.566 38.4651L246.241 38.0546C246.188 38.5388 246.089 39.0253 245.94 39.5081L240.762 56.2132C239.503 60.2751 235.189 62.5474 231.127 61.2884L212.226 55.4297C208.164 54.1706 205.892 49.8569 207.151 45.7949L212.329 29.0898C212.479 28.607 212.672 28.15 212.903 27.7207L212.511 27.5993C210.074 26.8438 208.71 24.2556 209.466 21.8184L210.415 18.757C211.17 16.3201 213.758 14.9575 216.195 15.7129L251.25 26.5787Z" fill="#C93C4F"/>
<path d="M251.25 26.5787L250.794 28.0497L251.25 26.5787ZM254.295 32.3586L255.766 32.8146L255.766 32.8144L254.295 32.3586ZM246.241 38.0546L246.697 36.5836L244.913 36.0305L244.71 37.8876L246.241 38.0546ZM212.903 27.7207L214.26 28.4489L215.143 26.8028L213.359 26.2497L212.903 27.7207ZM212.511 27.5993L212.967 26.1283L212.511 27.5993ZM210.415 18.757L208.944 18.3009L208.944 18.3011L210.415 18.757ZM216.195 15.7129L216.651 14.2419L216.195 15.7129ZM251.25 26.5787L250.794 28.0497C252.419 28.5533 253.328 30.2784 252.824 31.9028L254.295 32.3586L255.766 32.8144C256.773 29.5649 254.955 26.1149 251.706 25.1078L251.25 26.5787ZM254.295 32.3586L252.824 31.9027L251.875 34.9641L253.346 35.42L254.817 35.876L255.766 32.8146L254.295 32.3586ZM253.346 35.42L251.875 34.9641C251.372 36.5888 249.646 37.4978 248.022 36.9942L247.566 38.4651L247.11 39.9361C250.359 40.9433 253.81 39.1255 254.817 35.876L253.346 35.42ZM247.566 38.4651L248.022 36.9942L246.697 36.5836L246.241 38.0546L245.785 39.5255L247.11 39.9361L247.566 38.4651ZM246.241 38.0546L244.71 37.8876C244.668 38.2764 244.588 38.666 244.469 39.0521L245.94 39.5081L247.411 39.964C247.59 39.3847 247.709 38.8013 247.772 38.2215L246.241 38.0546ZM245.94 39.5081L244.469 39.0521L239.291 55.7573L240.762 56.2132L242.233 56.6692L247.411 39.964L245.94 39.5081ZM240.762 56.2132L239.291 55.7573C238.283 59.0068 234.832 60.8247 231.583 59.8174L231.127 61.2884L230.671 62.7593C235.545 64.2702 240.722 61.5435 242.233 56.6692L240.762 56.2132ZM231.127 61.2884L231.583 59.8174L212.682 53.9587L212.226 55.4297L211.77 56.9006L230.671 62.7593L231.127 61.2884ZM212.226 55.4297L212.682 53.9587C209.432 52.9515 207.615 49.5004 208.622 46.2509L207.151 45.7949L205.68 45.339C204.169 50.2133 206.896 55.3898 211.77 56.9006L212.226 55.4297ZM207.151 45.7949L208.622 46.2509L213.8 29.5457L212.329 29.0898L210.858 28.6338L205.68 45.339L207.151 45.7949ZM212.329 29.0898L213.8 29.5457C213.92 29.1595 214.075 28.7935 214.26 28.4489L212.903 27.7207L211.546 26.9925C211.27 27.5064 211.038 28.0545 210.858 28.6338L212.329 29.0898ZM212.903 27.7207L213.359 26.2497L212.967 26.1283L212.511 27.5993L212.055 29.0702L212.447 29.1916L212.903 27.7207ZM212.511 27.5993L212.967 26.1283C211.342 25.6247 210.433 23.8991 210.937 22.2743L209.466 21.8184L207.995 21.3624C206.987 24.612 208.805 28.063 212.055 29.0702L212.511 27.5993ZM209.466 21.8184L210.937 22.2743L211.886 19.213L210.415 18.757L208.944 18.3011L207.995 21.3624L209.466 21.8184ZM210.415 18.757L211.886 19.2131C212.389 17.5887 214.114 16.6801 215.739 17.1838L216.195 15.7129L216.651 14.2419C213.402 13.2348 209.951 15.0515 208.944 18.3009L210.415 18.757ZM216.195 15.7129L215.739 17.1838L250.794 28.0497L251.25 26.5787L251.706 25.1078L216.651 14.2419L216.195 15.7129Z" fill="#C93C4F" mask="url(#path-4-inside-1_114_1193)"/>
<path d="M234.021 20.1777L222.167 58.4225" stroke="#FFC72B" stroke-width="4.62"/>
<path d="M212.045 29.7496L245.877 40.2365" stroke="#FFC72B" stroke-width="4.62"/>
</svg>
