<?xml version="1.0" encoding="utf-8"?>
<!-- Generator: Adobe Illustrator 30.1.0, SVG Export Plug-In . SVG Version: 9.03 Build 0)  -->
<svg version="1.0" id="Layer_1" xmlns="http://www.w3.org/2000/svg" xmlns:xlink="http://www.w3.org/1999/xlink" x="0px" y="0px"
	 viewBox="0 0 738 280" style="enable-background:new 0 0 738 280;" xml:space="preserve">
<style type="text/css">
	.st0{fill:#212121;}
	.st1{clip-path:url(#SVGID_00000141433721023305914010000000844958600981763764_);}
	.st2{clip-path:url(#SVGID_00000148626883921512390290000001313013387006034053_);}
	.st3{clip-path:url(#SVGID_00000075883208357639748790000003140533422171078035_);}
	.st4{fill-rule:evenodd;clip-rule:evenodd;fill:#F4F2EF;}
	.st5{clip-path:url(#SVGID_00000114031190304320014630000015569271977950890934_);}
	.st6{clip-path:url(#SVGID_00000009559606501306564780000015014089769567015056_);}
	.st7{fill:#F07EA2;}
	.st8{fill:#089798;}
	.st9{fill:#0B777E;}
	.st10{fill:#343331;}
	.st11{fill:#F5C5B8;}
	.st12{fill:#333230;}
	.st13{fill:#9BC16C;}
	.st14{fill:#F7F2E0;}
	.st15{fill:#9CC16C;}
	.st16{fill:#0B6B72;}
	.st17{fill:#7B4C3E;}
	.st18{fill:#403635;}
	.st19{fill:#914E83;}
	.st20{fill:#AA6749;}
	.st21{fill:#914D83;}
	.st22{fill:#924F84;}
	.st23{fill:#FBF9F9;}
	.st24{fill:#E76155;}
	.st25{fill:#E76254;}
	.st26{fill:#F7EFDF;}
	.st27{fill:#079697;}
	.st28{fill:#C84C42;}
	.st29{fill:#F7E0A0;}
	.st30{fill:#FAF9F8;}
	.st31{fill:#FBF9F8;}
	.st32{fill:#115058;}
	.st33{fill:#F5C6B8;}
	.st34{fill:#F27EA2;}
	.st35{fill:#E76154;}
	.st36{fill:#F5A6A2;}
	.st37{fill:#F7EEDF;}
	.st38{clip-path:url(#SVGID_00000037658772991051243060000003141490347196701064_);}
	.st39{fill:#F6C7B9;}
	.st40{fill:#F6C5B8;}
	.st41{fill:#F5C6B7;}
	.st42{fill:#294243;}
	.st43{fill:#F6EEDE;}
	.st44{fill:#F1C66B;}
	.st45{fill:#C74D42;}
	.st46{fill:#F4C66F;}
	.st47{fill:#55A598;}
	.st48{clip-path:url(#SVGID_00000119811119459703681520000016343598544413576843_);}
	.st49{fill:#9DB573;}
	.st50{fill:#F6CA6B;}
	.st51{fill:#0E7181;}
	.st52{fill:#E76255;}
	.st53{fill:#E8668D;}
	.st54{fill:#F7E0A3;}
	.st55{fill:#088080;}
	.st56{fill:#F17BA1;}
	.st57{fill:#088181;}
	.st58{fill:#F4A9A3;}
	.st59{fill:#070505;}
	.st60{fill:#0C0908;}
	.st61{fill:#090707;}
	.st62{fill:#F5A6A3;}
	.st63{fill:#F5A7A3;}
	.st64{fill:#080605;}
	.st65{fill:#CEC7B5;}
	.st66{fill:#080706;}
	.st67{fill:#080606;}
	.st68{fill:#F5A5A2;}
	.st69{fill:#090807;}
	.st70{fill:#070605;}
	.st71{fill:#7BA152;}
	.st72{fill:#CFC7B6;}
	.st73{fill:#E86355;}
	.st74{fill:#7CA150;}
	.st75{fill:#F6CA6C;}
	.st76{fill:#F5EDDF;}
	.st77{fill:#79AC92;}
	.st78{fill:#C64D42;}
	.st79{fill:#FAF8F6;}
	.st80{fill:#F07A9F;}
	.st81{fill:#89523B;}
	.st82{fill:#E4C07D;}
	.st83{fill:#139798;}
	.st84{fill:#F6CA6D;}
	.st85{fill:#E5C280;}
	.st86{fill:#099898;}
	.st87{fill:#E66054;}
	.st88{fill:#C74C43;}
	.st89{fill:#C54D42;}
	.st90{fill:#9EC370;}
	.st91{fill:#EBCDAB;}
	.st92{fill:#EDD2B4;}
	.st93{fill:#EFD0AD;}
	.st94{fill:#EDCFAB;}
	.st95{fill:#EDCFAD;}
	.st96{fill:#EED2B1;}
	.st97{fill:#EDCFAE;}
	.st98{fill:#EFD0B0;}
	.st99{fill:#BD7D58;}
	.st100{clip-path:url(#SVGID_00000093140511722428685780000013096747308364521144_);}
	.st101{clip-path:url(#SVGID_00000083067840561090665870000008819924361058702755_);}
	.st102{clip-path:url(#SVGID_00000106841509726138066110000005629824285476498304_);}
	.st103{fill:#DAE2E8;}
	.st104{clip-path:url(#SVGID_00000134219629370882993480000006821892616951247752_);}
	.st105{fill:#F3F9FF;}
	.st106{clip-path:url(#SVGID_00000008852090540703113020000009349288098998234021_);}
	.st107{clip-path:url(#SVGID_00000098186270935956719630000009127163479610846091_);}
	.st108{clip-path:url(#SVGID_00000152246138895111907470000000242753443824513179_);}
	.st109{fill:#FAFAFA;}
	.st110{clip-path:url(#SVGID_00000168087715656033023700000015016070447663579582_);}
	.st111{clip-path:url(#SVGID_00000062174750889400505050000006848986943320989059_);}
	.st112{fill:none;stroke:#FFFFFF;stroke-width:2.1506;stroke-miterlimit:2.1506;}
</style>
<rect x="-115" y="-61" class="st0" width="921" height="427"/>
<g>
	<defs>
		<rect id="SVGID_1_" x="589.43" y="19.09" width="86.67" height="44"/>
	</defs>
	<clipPath id="SVGID_00000008149565411803637170000013593759425086549169_">
		<use xlink:href="#SVGID_1_"  style="overflow:visible;"/>
	</clipPath>
	<g style="clip-path:url(#SVGID_00000008149565411803637170000013593759425086549169_);">
		<g>
			<defs>
				
					<rect id="SVGID_00000099655944071104608820000018073095308906966180_" x="612.21" y="-0.58" transform="matrix(0.0754 -0.9972 0.9972 0.0754 544.1243 670.608)" width="42.96" height="84.92"/>
			</defs>
			<clipPath id="SVGID_00000075846877638839854930000010909960168642818177_">
				<use xlink:href="#SVGID_00000099655944071104608820000018073095308906966180_"  style="overflow:visible;"/>
			</clipPath>
			<g style="clip-path:url(#SVGID_00000075846877638839854930000010909960168642818177_);">
				<g>
					<defs>
						
							<rect id="SVGID_00000016788694740741352400000010254716561781747385_" x="612.21" y="-0.58" transform="matrix(0.0754 -0.9972 0.9972 0.0754 544.1243 670.608)" width="42.96" height="84.92"/>
					</defs>
					<clipPath id="SVGID_00000093147672620435991630000017668503032691061128_">
						<use xlink:href="#SVGID_00000016788694740741352400000010254716561781747385_"  style="overflow:visible;"/>
					</clipPath>
					<g style="clip-path:url(#SVGID_00000093147672620435991630000017668503032691061128_);">
						<path class="st4" d="M649.03,30.52c-0.54-2.62-4.77-5.69-7.98-5.94c-2.18-0.17-4.24,0.54-5.82,1.82
							c-1.19-3.57-4.43-6.26-8.41-6.56c-4.46-0.33-8.44,2.42-9.83,6.46c-1.59-1.5-3.69-2.48-6.04-2.66
							c-5.46-0.41-10.23,3.68-10.65,9.15c-0.14,1.88,0.24,3.67,1.04,5.24c-0.03-0.01-0.06-0.01-0.09-0.01
							c-5.41-0.41-10.12,3.65-10.54,9.06c-0.41,5.41,3.65,10.14,9.06,10.54c5.42,0.41,10.14-3.65,10.55-9.06
							c0.12-3.95-4.11-4.17-5.8-2.53c-1.49,1.46-1.08,3.22-1.08,3.22s-2.28-5.34,3.09-6.43c3.76-0.77,5.58,2.09,5.92,4.39
							c0.23,1.53-0.46,4.23-0.52,4.95c-0.42,5.46,3.68,10.23,9.15,10.65c3.99,0.3,7.6-1.8,9.43-5.08c1.42,1.93,3.64,3.26,6.22,3.45
							c3.45,0.26,6.57-1.57,8.13-4.43c0.99,1.47,2.62,2.49,4.53,2.64c3.31,0.25,6.2-2.23,6.45-5.54c0.01-0.12,0.01-0.26,0.02-0.38
							c8.89,2.99,13.99,0.49,19.45-3.74c-17.52,2.17-17.8-6.91-17.8-6.91c0.03-0.14,0.04-0.29,0.05-0.43
							c0.32-4.25-2.86-7.96-7.11-8.28c0,0-3.07-0.06-4.04,3.85c-0.55,2.19,0.79,3.88,0.79,3.88S640.03,35.74,649.03,30.52z"/>
					</g>
				</g>
			</g>
		</g>
	</g>
</g>
<g>
	<defs>
		<rect id="SVGID_00000006701692549251985160000001689852092517016503_" x="376.38" y="57.62" width="211.6" height="190.23"/>
	</defs>
	<clipPath id="SVGID_00000040566433707062567260000010256812331901842105_">
		<use xlink:href="#SVGID_00000006701692549251985160000001689852092517016503_"  style="overflow:visible;"/>
	</clipPath>
	<g style="clip-path:url(#SVGID_00000040566433707062567260000010256812331901842105_);">
		<g transform="matrix(1, 0, 0, 1, 266, 45)">
			<g>
				<defs>
					<rect id="SVGID_00000096755336215194153630000015421762066030075053_" x="109.48" y="11.58" width="213.14" height="191.42"/>
				</defs>
				<clipPath id="SVGID_00000046326173447742370560000001059785507404614536_">
					<use xlink:href="#SVGID_00000096755336215194153630000015421762066030075053_"  style="overflow:visible;"/>
				</clipPath>
				<g style="clip-path:url(#SVGID_00000046326173447742370560000001059785507404614536_);">
					<path class="st7" d="M306.15,111.02l-0.31,0.51c-1.79,1.47-3.69,2.79-5.65,4l-0.09,0.46l-0.37,0.29
						c0.87,7.32,1.83,14.65,2.9,22c0.15,1,0.2,1.81-0.92,2.15c-1.09,0.33-4.1,0.6-5.31,0.65c-0.45,0.02-1.03,0-1.42-0.29
						c-0.51-0.38-0.36-0.84-0.4-1.45c-0.1-1.36-0.39-2.68-0.52-4.04c-0.19-1.87-0.37-3.74-0.55-5.62c-0.37-3.74-0.73-7.49-1.1-11.23
						l-0.4-0.2c-0.45-0.25-1.06-0.27-1.8-0.03c-0.81-0.08-1.39,0.05-1.78,0.41l-0.36,0.22c0.05,0.85-0.09,1.94-1.06,2.18l-9.73,0.06
						c-0.44,0.02-0.74,0.13-0.9,0.57c-1.42-0.56-3.66-0.76-5.08-0.19l-0.55-0.25c-2.79-0.05-5.57-0.07-8.34-0.07
						c-1.41-0.06-2.48-0.57-2.26-2.17l-0.34-0.33l-0.4-0.35c-1.93,0.22-3.74-0.58-5.06-1.98c-0.25-0.28-0.7-0.42-0.9-0.02
						c-0.18,0.36-0.37,0.75-0.48,1.13c-0.41,1.5-1.19,2.89-1.8,4.32c-0.64,1.53-1.25,3.06-1.81,4.61c-1.14,3.11-2.16,6.26-3.15,9.42
						c-0.3,0.98-0.6,1.95-0.91,2.93l0.21,1.24c-0.03,0.22-0.05,0.42-0.05,0.63c0,0.21,0.01,0.41,0.07,0.59
						c2.92,9.94,5.37,18.86,6.71,29.21c0.36,2.81,0.71,5.98,0.65,8.69c-0.01,0.56-0.16,1.12-0.54,1.55l0.11,0.43
						c-0.11,0.45,0.48,0.67,0.87,0.78c1.46,0.41,2.94,0.8,4.44,1.1c2.87,0.57,5.74,1.04,8.64,1.5c0.2,0.03,0.42,0,0.63-0.03
						c0.22-0.03,0.44-0.09,0.65-0.15c0.53,0.09,1.22-0.05,1.8,0c8.06,0.64,15.42,0.43,23.42-0.75l0.85,0.13
						c5.13-0.63,10.42-1.69,15.37-3.25c0.27-0.08,0.51-0.22,0.75-0.35c0.24-0.15,0.48-0.31,0.71-0.48c2.74-0.85,6.34-2.14,8.86-3.48
						c1.09-0.58,1.6-0.95,1.7-2.25c0.16-2.19-0.1-4.44-0.21-6.6c-0.65-13.84-3.18-27.52-7.05-40.82
						c-1.56-5.36-3.42-10.65-5.46-15.84l-0.48-1.18c-0.4-0.12-1.42,1.36-1.85,1.68L306.15,111.02z"/>
					<path class="st8" d="M187.75,180.27c-0.14-0.69-0.16-1.38,0-2.07c-0.15-0.09-0.16-0.16,0-0.19c0.18-0.74,0.12-1.27-0.18-1.58
						c-0.04-0.74,0.35-3.54,0.54-4.34c0.03-0.11,0.24-0.13,0.39-0.13c0.31-0.5,0.41-1.26,0.51-1.85
						c1.95-10.79,4.63-21.55,8.14-31.89c-0.47-0.42,0-2.05,0.58-1.96l0.54-0.5c1.1,0.2,2.2,0.5,3.29,0.76
						c0.55,0.14,1.1,0.25,1.65,0.36c0.21,0.04,0.43,0.05,0.65,0.07v-0.07l3.23,0.29c1.53-0.12,3.16-0.11,4.68,0.03
						c1.08-0.13,2.15,0.08,3.27,0.07c0.08-0.11,0.19-0.2,0.3-0.28c0.37-0.27,3.86-0.54,4.66-0.56l0.69,0.28l0.46,0.21
						c0.99,1.93,2.75,3.06,5.26,3.39c-0.22,1.01-0.27,2.19-0.06,3.2l0.37,0.28c-0.1,1.63-0.06,3.25,0.13,4.87
						c0,0.35,0.32,0.8,0.66,0.86c0.37,0.07,5.44,0.04,5.72-0.05c0.69-0.21,0.69-1.23,0.65-1.83l-0.66-9.99
						c0-2.23,1.45,6.93,2.29,8.23c1.71,7.07,3.08,14.22,4.09,21.45c0,1.1,1.07,4.7,2.42,2.59c0.25-0.4,0.16-1.15,0.1-1.6
						c-1.59-9.96-3.9-20.34-6.67-30.16c-0.09-0.41,0.07-0.59,0.49-0.5c0.14-0.28,0.39-0.34,0.78-0.21c2-0.97,3.73-2.65,5.28-4.28
						l0.54-0.05c0.29-0.28,0.52-0.32,0.69-0.12c1.13,2.14,2.14,4.48,2.32,6.9c3.86,11.1,7.2,25.91,7.72,37.6
						c0.06,1.27,0.22,2.57-0.76,3.48l-0.23,0.37c-1.06,0.3-2.07,0.84-2.98,1.44l-0.37-0.11l-0.09,0.45
						c-1.29,0.48-2.6,0.93-3.92,1.35l-0.32-0.29c-0.13,0.14-0.28,0.29-0.43,0.41c-0.16,0.12-0.31,0.22-0.49,0.28
						c-3.92,1.3-8.16,2.07-12.23,2.74c-0.18,0.03-0.37,0-0.57-0.05c-0.2-0.04-0.39-0.1-0.58-0.18c-6.66,0.9-13.28,1-19.94,0.19
						c-0.19,0.08-0.37,0.15-0.56,0.19s-0.37,0.08-0.55,0.06c-4.19-0.5-8.89-1.37-12.87-2.75c-0.16-0.06-0.31-0.16-0.47-0.29
						c-0.16-0.12-0.3-0.27-0.42-0.41l-0.41,0.13c-1.24-0.39-7.36-2.84-7.51-3.9l0.21-0.37L187.75,180.27z M202.04,157.38l1.36-15.22
						c-0.51,2.26-1.02,4.51-1.56,6.76c-0.48,2.05-0.83,4.21-1.48,6.22C199.87,156.58,200.2,158.92,202.04,157.38z"/>
					<path class="st9" d="M140.14,138.99c0.58,3.92,1.86,7.84,3.54,11.44c0.6,1.29,1.11,2.12,1.92,3.26l0.37-0.18l4.14-8.53
						c0.44-0.84,1.57-0.8,1.65,0.24c0.11,1.31-3.25,8.06-4.35,9.03c-0.35,0.14-0.64,0.32-0.87,0.57c0.09,0.05,0.39,0.23,0.38,0.3
						c-2.46,5.59-5.35,11.01-7.95,16.53c-1.12,2.38-2.4,4.93-3.38,7.36c-0.36,0.89-0.67,1.58-0.53,2.58
						c0.22,0.59,1.41,1.22,2.04,1.53c5.26,2.53,10.54,5.01,15.91,7.33c0.28,0.12,0.58,0.19,0.88,0.24c0.3,0.07,0.62,0.1,0.92,0.14
						c0.32,0.05,1.21-0.14,1.51-0.29c0.51-0.28,1.42-1.98,1.73-2.6c1.72-3.33,3.16-7.06,4.95-10.32c0.21-0.37,0.06-0.46,0.65-0.37
						c2.53-5.95,5.41-12.02,8.61-18.24c1.37-2.44,2.4-4.97,3.05-7.58c1.32-3.09,2.46-6.58,2.99-9.91c0.16-1.03,0.19-2.08,0.4-3.09
						h-1.21c-12.03,3.73-24.02,2.17-36.18,0.41c-0.19-0.03-0.38,0-0.58,0.02c-0.21,0.03-0.4,0.07-0.6,0.13L140.14,138.99z"/>
					<path class="st10" d="M135.63,59.26c0.19,0.56,1.88,1.18,2.16,0.57c0.19,0.63,2.52,0.58,2.82,0l0.23,0.35
						c0.54,0.1,3.09-0.8,3.51-1.28c7.79,6.01,18.59,5.26,27.01,1.2c0.22,3.88,1.88,11.54,6.59,12.1c2.55,0.3,2.67-1.35,2.83-3.4
						c-0.05-1.02-0.05-2.05,0.01-3.06c1.75-0.85,4,0.14,5.54,1.17l0.47-0.12c3.03-5.42,3.55-12.31,0.34-17.78
						c-2.62-4.47-8.15-7.54-13.07-4.69c-0.27,0.15-0.67,0.64-0.89,0.59c-2.7-3.33-6.43-5.75-10.42-7.3
						c-6.35-2.46-17.27-3.22-20.47,4.3c-0.5,1.19-0.67,2.48-1.02,3.69c-1.8,0.18-3.54,0.36-5.15,1.25
						c-3.21,1.77-4.24,5.23-3.27,8.68c0.42,1.48,1.39,3.02,2.77,3.72H135.63z"/>
					<path class="st11" d="M307.81,39.65l-0.23-0.52c-3.28-1.07-6.37-1.42-5.58,3.13c0.31,1.48-1.8,1.3-2.77,1.19
						c-9.31-1.03-18.69-5.93-24.32-13.63c-0.66-1.76-1.94-1.22-2.68,0.19c-3.79,3.55-8.94,7.14-13.89,8.67
						c-0.66,0.21-2.33,0.62-2.26-0.43l-0.39-0.29c-5.59,0.69-6.84,7.69-3.58,11.6c0.8,0.95,2.28,1.93,3.52,2.13
						c1.08,0.18,2.06-0.37,2.69,0.79l0.25-0.39c-1.83-3.08-0.82-7.89,3.68-6.39c5.41,1.81,3.08,11.25-2.72,8.16l-0.45,0.12
						c0,0,1.85,2.98,2.06,3.26c0.77,1.02,1.64,1.98,2.57,2.86c1.88,1.76,4.07,3.16,6.44,4.17c0.58,0.24,1.17,0.47,1.78,0.66
						c0.27,0.09,0.55,0.21,0.82,0.3c0.22,0.07,0.72,0.05,0.89,0.15c0.08,0.06,0.21,0.63,0.41,0.63c1.79,0.02,3.51,0.18,4.44,1.96
						l3.11,4.45c0.68,0.56,1.21-0.18,1.61-0.74c1.11-1.89,2.25-3.77,3.4-5.62c1.33-0.35,2.57-0.79,3.72-1.33
						c-0.11-0.47,0.22-0.38,0.5-0.53c1.09-0.58,1.86-1.07,2.88-1.74c0.89,0.18,2.4-1.02,3.08-1.69c2.09-2.07,4.08-4.35,5-7.19
						c1.85,0.6,3.97,0.32,5.76-0.46c0.6-0.27,1.35-0.85,1.78-1.58c0.74,0.3,1.17-1.38,1.5-2.07c1.57-3.36,0.37-8.03-3.01-9.79
						L307.81,39.65z"/>
					<path class="st11" d="M135.63,59.26c-5.54-0.58-8.76,3.4-7.68,8.72c0.52,2.54,2.35,4.59,4.8,5.37c0.5,0.16,2.41,0.43,2.51,0.51
						c0.1,0.08,0.34,0.6,0.36,0.67l0.36-0.21c-0.77-2.44-0.39-5.72,2.5-6.45c4.71-1.19,7.35,6.52,3.02,8.44
						c-1.85,0.82-4.49,0.21-5.44-1.67l-0.46-0.11c2.26,6.82,6.08,11.02,12.67,13.99c0.6,0.28,1.46,0.3,1.82,0.91
						c0.71,0.37,2.03,0.78,2.73,0.83c0.53,1.7,1.12,3.41,1.78,5.07c0.04,0.11,0.13,0.2,0.23,0.28c0.11,0.09,0.23,0.17,0.35,0.24
						c0.42,0.31,1.75-0.21,2.07-0.57c1.5-1.47,3.01-3.02,4.48-4.66c1.86-0.34,3.68-0.79,5.46-1.36l0.22-0.39
						c0.96-0.34,2.72-1.36,3.64-1.91c2.93-1.8,5.02-4.4,6.89-7.23c0.46-0.24,2.21,0.43,2.92,0.48c5.73,0.43,10.05-4.9,7.91-10.36
						c-0.32-0.83-1.31-2.45-1.98-3.02c-0.55-0.46-2.08-1.28-2.78-1.47c-0.82-0.22-3.44-0.67-3.63,0.43c-0.14,0.86,0.06,2.09,0,3.02
						c-0.05,0.82,0.16,2.09-0.63,2.67c-0.45,0.32-0.92,0.45-1.46,0.42c-1.03-0.07-2.13-0.6-2.9-1.3c-1.32-1.18-2.59-4.3-3.02-6.03
						c-0.39-1.58-0.51-3.28-0.65-4.91c-0.15-0.16-3.2,1.28-3.71,1.47c-6.66,2.38-13.99,2.6-20.44-0.55
						c-1.15-0.57-2.13-1.35-3.22-1.99c-0.45,0.28-1,0.54-1.51,0.7c-0.97,0.31-1.96,0.47-2.97,0.53c-0.83,0.05-1.78,0.21-2.58-0.09
						c-0.59-0.22-1.07-0.38-1.71-0.45L135.63,59.26z"/>
					<path class="st12" d="M255.68,37.95c0.03,0.38,0,0.75,0.22,1.09c1.12,0.55,2.48,0.01,3.59-0.38c4.1-1.45,9.83-5.28,12.94-8.34
						c0.38-0.38,0.67-1.31,1.41-1.24c0.51,0.05,0.52,0.62,0.76,0.95c4.58,6.16,10.63,10.13,17.96,12.36
						c1.77,0.54,4.13,1.23,5.94,1.39c0.71,0.06,2.91,0.14,3.39-0.16c1.11-0.71-0.15-3.8,0.85-4.43c1.11-0.72,3.92-0.14,5.07,0.46
						c-0.72-10.46-7.18-19.57-17.08-23.14c-10.69-3.86-24.49-1.04-31.26,8.57c-2.28,3.24-4.05,8.93-3.79,12.88L255.68,37.95z"/>
					<path class="st11" d="M246.65,77.35c0.04-0.71-1.65-1.03-2.29-1.13c-1.04-0.15-4.05-0.34-4.06,1.23c3.74,5.65-2,4.73-4.36,1.1
						c-1.2-1.94-2.17-3.99-2.92-6.14c-0.4-0.88-1.64-1.07-1.52,0.08c0.8,2.17,1.2,3.86-1.86,3.45c-5.47-0.74-10.31-3.37-11.53-9.16
						c-0.33-0.25-0.65-0.25-0.9,0.07c-1.15,4.42-5.1,7.05-9.49,7.29c-1.93,0.11-2.95-0.16-1.96-2.23c0.83-0.98,2.22-3.66-0.29-2.58
						c-1.5,3.09-3.95,4.98-7.46,4.22l-0.28,0.38c-4.62,0.18-6.14,4.97-4.79,8.86c0.07,0.21,0.57,1.38,0.66,1.5
						c-0.07,0.07-0.13,0.13-0.16,0.22c-0.16,0.42,2.37,2.04,2.9,2.25c0.67,0.26,1.37,0.45,2.08,0.55c1.2,0.16,1.48,0.82,2.33,1.52
						c-0.34,0.55,0.11,2.2,0.94,2.06c2.48,3.95,6.5,6.45,10.74,8.19c0.3,0.13,0.66-0.05,0.55,0.47c0.06,0.14,0.15,0.27,0.29,0.28
						c1.26,0.1,3.51,0.44,4.25,1.56l1.75,2.43c0.48,0.59,1.12,0.84,1.71,0.27l2.93-3.37c1.46-0.33,2.93-0.67,4.4-1.01l0.3-0.36
						c1.74-0.12,3.26-0.99,4.67-1.96c1.45-1,2.82-1.94,4.05-3.21c0.67-0.69,1.24-1.5,1.59-2.41c0.21-0.55,0.47-1.25,1.1-1.42
						c0.58-0.15,1.73,0.27,2.4,0.24c1.69-0.06,3.36-0.59,4.75-1.58c0.68-0.49,1.92-1.44,1.58-2.3c0.9-1.64,1.01-3.32,0.71-5.14
						c-0.22-1.35-1.57-3.62-2.78-4.29L246.65,77.35z"/>
					<path class="st13" d="M292.75,66.23l-0.38-0.21c-2.64,3.47-5.16,7.33-7.32,11.1c0.68,1.86,2.23,3.69,3.56,5.14l0.09,0.43
						c1.56,0.69,3.1,1.54,4.38,2.68l0.43-0.1c0.74,0.68,1.06,0.27,0.77-0.63l-0.68-2.17c-0.5-1.15,0.93-1.88,1.65-1.02
						c1.12,3.64,2.11,7.36,2.95,11.14c-3.26,2.91-6.58,5.81-9.97,8.71c-0.52,0.24-0.84,0.56-0.93,0.94l-0.24,0.32
						c2.94,4.43,5.89,8.85,8.84,13.28l0.44-0.02c-0.05,0.53,1.61,1.16,2.05,1.15c0.63-0.03,1.44-0.43,1.71-0.95
						c1.69-0.79,4.63-3.14,6.22-4.34c1.18-1.35,2.69-2.4,3.86-3.76c1.1-1.3,2.84-4.44,3.35-6.08c3.56-11.35-3.92-24.72-12.57-31.82
						c-1.99-1.63-4.64-2.57-7.01-3.54c-0.5-0.2-0.4-0.63-1.18-0.23L292.75,66.23z"/>
					<path class="st12" d="M226.33,53.98l-0.27,0.33c2.17,6.14-13.74,6.53-13.5,0.75l-0.33-0.33c-8.08,2.38-13.74,10-14.59,18.29
						c-0.04,0.34-0.2,0.59,0.1,0.94c2.03-0.08,2.66,0.59,4.65-0.53c0.76-0.43,1.67-1.24,2.22-1.91c0.44-0.54,0.84-1.6,1.12-1.89
						c0.22-0.24,0.94-0.39,0.83,0.07c-0.35,1.51-1.81,2.08-1.5,3.98c0.23,1.31,3.6,0.82,4.57,0.62c3.65-0.76,6.88-3.36,7.84-7.04
						c0.07-0.3-0.05-0.3,0.39-0.27c0.38,2.78,2.35,5.41,4.64,6.95c1.65,1.1,4.28,1.87,6.23,2.24c1.5,0.28,3.37,0.76,3.73-1.26
						c0.11-0.6-0.49-2.08-0.67-2.74c0.06-0.21,0.42-0.07,0.57,0c0.46,0.24,0.99,2.25,1.28,2.87c1.16,2.56,2.63,5.64,5.5,6.55
						c0.85,0.28,1.58,0.53,2.35-0.08c1.35-1.09-0.28-2.96-0.82-4.08c-0.08-0.54,1.39-0.94,1.8-0.95c0.37-0.01,1.43,0.08,1.85,0.13
						c0.51,0.06,1.91,0.51,2.35,0.76c0.32-0.18,0.19-0.72,0.19-1.03c0.15-10.96-9.09-20.66-19.61-22.39
						c-0.27-0.05-0.72-0.34-0.9,0.05V53.98z"/>
					<path class="st14" d="M174.39,94.13c-0.92-0.33-2.04,0.97-2.65,1.69c-3.61,4.21-4.75,11.02-5.58,16.34l0.32,0.44
						c-0.39,0.95,0.1,1.33,1.46,1.15c1.51,0.22,5.37,1.06,6.4,2.08c0.75,0.75,0.53,1.63-0.58,1.45c-1.98-0.71-4.01-1.26-6.06-1.76
						c-0.59-0.35-1.12-0.51-1.6-0.47l-0.78-0.03c-4.01,1-7.9,2.47-11.67,3.98l-0.35,0.58c-0.49-0.48-1.31,0.19-0.94,0.75
						c-0.11,0.36-0.26,0.65-0.46,0.9c0.12,1.09,0.43,2.17,0.79,3.26c1.23,3.61,2.55,7.21,3.87,10.79c0.06,0.16,0.18,0.31,0.28,0.47
						c0.12,0.16,0.25,0.29,0.4,0.43c-0.53,0.58,0.68,1.3,1.23,1.44c1.66,0.38,7.22-1.16,8.88-1.74c5.06-1.76,10-4.18,13.5-8.36
						l0.11-0.75c6.37-8.59,2.7-23.97-4.23-31.3c-0.66-0.71-1.28-1.5-2.36-1.32L174.39,94.13z"/>
					<path class="st15" d="M253.24,90.36l-0.17,0.49c1.44,2.83,0.36,6.51-2.79,7.53l-0.24,0.46l-0.36,0.33
						c-0.79,3.6-0.33,8.85,1.33,12.19c0.4,0.81,2.81,6.32,3.3,4.76l-0.98-4.2c0.84-3.76,2.51-8.16,6.1-9.96l0.21-0.47
						c0.33-0.33,0.15-0.72-0.52-1.16c-0.45-0.81-0.42-4.69-0.22-5.66c0.12-0.57,0.23-0.91,0.87-1.01c0.6,0.05,0.93-0.11,1-0.47
						l0.44-0.17l3.47-11.64c0.98-0.36,1.87,0.09,1.47,1.2l-0.88,3.06c-0.09,0.4-0.04,0.6,0.38,0.76l0.42,0.22
						c3.02-1.33,6.01,0.43,7.45,3.19c0.78,1.06,2.27-1.16,2.3-2.09c-1.1-0.92-0.3-3.93,0.07-5.21c0.39-2.11,1.87-2.72,4.46-1.81
						l0.35-0.32l0.22-0.36c0.08-0.12-0.99-1.58-1.11-1.76c-0.41-0.65-0.82-1.29-1.23-1.94c-0.8-1.26-1.6-2.52-2.4-3.78
						c-0.8-1.26-1.6-2.52-2.4-3.78c-0.39-0.6-0.84-2.09-1.79-1.94c-0.96,0.14-1.16,0.56-1.63,0.79c-0.6,0.3-1.18,0.64-1.76,0.99
						c-2.26,1.39-4.27,3.17-6.05,5.15c-3.5,3.91-6.05,8.62-8.13,13.42c-0.45,1.03-1.16,2.04-1.22,3.2L253.24,90.36z"/>
					<path class="st16" d="M177.03,153.89l-0.38,0.14c-3.33,8.22-7.12,16.16-11.37,23.84c-0.46-0.07-0.81-0.03-1.04,0.15
						c1.85,2.54,4.21,5.37,6.3,7.74c0.44,0.5,1.67,1.96,2.08,2.25c0.37,0.28,0.73,0.29,1.03,0.57c0.36,0.18,0.77,0.08,1.21-0.27
						c4.26-3.61,8.44-7.33,12.5-11.18c0,0.39,0,0.68,0.4,0.89l0.75-6.03c-3.75-6.07-7.45-12.2-11.48-18.09L177.03,153.89z"/>
					<path class="st17" d="M154.82,190.84c-5.79-2.55-11.64-4.98-17.25-7.89c-0.84-0.43-1.6-1.08-2.51-1.36
						c-0.95-0.28-1.86,0-2.83,0.29c-3.04,0.89-5.32,3.16-5.63,6.43c-0.32,3.44,2.16,4.53,4.75,5.96c4.32,2.39,10.67,5.22,15.37,6.66
						c1.73,0.53,3.32,1.03,4.37-0.9c0.74-1.37,1.51-3.37,2.13-4.84C153.81,193.75,154.34,192.3,154.82,190.84z"/>
					<path class="st17" d="M173.64,188.57c-0.91,1.06-1.32,5.43-1.04,6.8c0.58,2.92,4.01,5.44,6.96,5.07
						c1.88-0.24,4.04-2.21,5.37-3.47c1.19-1.12,2.18-2.41,3.38-3.49l0.35-0.37c-0.6-3.91,2.17-5.74,5.68-5.89l0.36-0.34
						c0.65,0,1.02-1.9,0.75-2.46c-0.05-0.02-0.18-0.21-0.36-0.28c-1.71-0.63-6.54-2.33-7.36-3.86c-0.13-0.68-0.18-1.38,0-2.07
						c0-0.06,0-0.13,0-0.19c0-0.34,0-0.69,0-1.04c0-0.28,0.14-0.55-0.28-0.47l-10.73,9.8c-0.72,0.45-1.32,1.07-1.98,1.59
						c-0.29,0.22-0.88,0.39-1.12,0.66V188.57z"/>
					<path class="st18" d="M311.95,183.48l-0.37-0.3c-2.79,1.16-5.53,2.47-8.23,3.95c-2.12,1.09-4.23,1.86-6.6,1.47l-0.42,0.33
						l-0.38-0.19c-0.04-0.16-0.1-0.16-0.19,0c-2.28,2.17-4.39,5.53-2.99,8.73c0.71,1.63,2.25,2.73,4.04,2.93
						c3.96,0.46,12.6-4.12,16.13-6.24c0.63-0.37,2.71-1.59,3.04-2.04c0.83-1.11,0.26-2.23-0.24-3.33c-0.51-1.11-2.07-4.08-2.78-4.94
						c-0.17-0.21-0.32-0.44-0.58-0.56c-0.2-0.05-0.32,0.13-0.44,0.15V183.48z"/>
					<path class="st19" d="M169.13,90.36c-0.34-0.37-0.81,0.01-1.11,0.3c-2.69,3.13-5.41,6.31-8.16,9.51l-0.33,0.74
						c-0.85-0.15-1.86,1.21-1.5,2.07l-0.3,0.29l1.95,4.86c-1.47,1.26-3.15,2.64-5.04,2.97c-0.14-0.06-0.32-0.13-0.43-0.04
						c-0.23,0.18-0.14,4.3,0.11,4.84l-0.23,1.06c-0.48-0.22-0.94,0.28-0.75,0.75c-0.58,0.11-0.56,1.73,0,1.89
						c1.72-0.85,3.95-1.55,5.79-2.22c2.31-0.83,4.65-1.62,7.01-2.31c0.81-0.04,0.66-1.54,0.25-1.95l0.12-0.5
						c0.62-5.31,2.72-15.87,7.9-18.48c0.15-0.07,0.58-0.23,0.57-0.28c-0.08-0.3-0.84-0.9-1.14-1.12
						C173.1,92.22,169.83,90.24,169.13,90.36L169.13,90.36z"/>
					<path class="st20" d="M225.2,122.59l-0.18,0.4c0.91,1.37,1.72,3.5,0.33,4.81l0.04,0.45c0.13,0.4,0.48,0.47,1.03,0.21
						c1.56-1.3,4.19-3.05,2.59,0.48c-3.19,3.57-14.35,4.13-18.73,4.09c-4.68-0.05-14.56-0.81-17.94-4.24
						c-1.24-1.26,0.17-2.46,1.16-1.37c0.73,0.56,1.32,0.7,1.77,0.45l0.22-0.45c-0.47-1.37-0.29-2.88,0.33-4.17l-0.18-0.47
						c0.02-0.11,0.03-0.22,0-0.32c-0.16-0.62-3.25,0.51-3.38,1.26c-2.17,1.08-3.98,2.8-3.58,5.47c-0.59,1.01,0.63,2.38,1.36,3.11
						c2.02,2,4.97,3.25,7.67,3.99l0.37-0.31h0.18c1.78,0.47,3.71,0.88,5.59,1.07c1.39,0.21,2.09,0.28,3.35,0.36l7.82-0.1
						c1.82-0.21,3.86-0.27,5.64-0.57l0.39,0.31c4-0.87,8.49-2.01,11.37-5.09l-0.1-0.5c1-0.14,1.35-1.93,1.35-2.85
						c0-0.91-0.31-1.79-0.81-2.53c-0.56-0.85-2-2.44-3-2.15c-0.23-0.86-1.83-1.66-2.82-1.5c-0.12-0.28-0.3-0.4-0.57-0.38
						C226.36,121.47,225.07,122.04,225.2,122.59z"/>
					<path class="st21" d="M157.27,136.17l-0.51-0.19c-3.52,1.54-8,2.63-11.15-0.22c-0.39-0.21-0.6-0.28-0.76,0.21
						c-0.16-0.31-0.45-0.37-0.88-0.19c-1.9-0.06-3.74,0.13-5.52,0.56c-0.11-0.36-0.27-0.36-0.38,0c0.19,0.53,0.22,1.38,0.56,1.8
						c0.38,0.48,1.13,0.37,1.51,0.84c12.21,2.41,26.55,3.4,38.58-0.57c1.69-0.56,2.8-1.02,2.99-2.94c0.23-2.21-0.38-4.89-0.37-7.13
						l-0.36-1.61c-3.75,5.06-11.25,8.37-17.27,9.75c-1.26,0.29-3.25,0.71-4.49,0.8c-0.84,0.06-1.55-0.43-1.95-1.12V136.17z"/>
					<path class="st18" d="M244.58,184.23c-0.1,0.78,0.4,2.04,1.13,2.26l-0.2,0.4c1.33,1.8,2.55,3.72,3.39,5.8
						c-0.16,0.92-0.74,1.69-1.72,2.32l0.02,0.54c1.01,0.62,2.22,1.04,3.34,1.46c2.2,0.81,6.86,2.68,8.98,2.87
						c1.6,0.16,2.53,0.22,3.2-1.33c0.98-2.25,1.6-4.83,2.51-7.11c0.05-0.21-0.03-0.47-0.15-0.62c0.26-0.37,0-0.49-0.36-0.62
						l-7.9-2.7c-3.26-0.83-5.76-2.4-7.52-4.71l-0.4-0.08C248.28,183.04,245.44,183.96,244.58,184.23z"/>
					<path class="st22" d="M188.32,193.47c0.65,0.41,0.9,1.08,1.52,1.59c2.15,1.79,9.74,4.59,12.59,5.3
						c1.1,0.27,3.01,0.65,3.74-0.41c1.11-1.64,1.62-4.57,2.28-6.48l0.03-0.58c-3.87-1.17-7.62-2.65-11.23-4.43l-2.12-1.81
						c-0.18,0-0.31,0.08-0.42,0.22c-0.89-0.2-3.11,0.41-3.96,0.84c-2.4,1.21-2.64,3.27-2.44,5.75V193.47z"/>
					<path class="st21" d="M232.35,191.59c-2.03,1.97-3.84,5.22-1.97,7.9c2.34,3.35,6.49,1.38,9.44,0.05
						c2.57-1.16,4.86-2.83,7.4-3.99c0.74-0.91,2.22-1.5,2.07-2.91c-0.08-0.71-1.82-3.49-2.29-4.32c-0.36-0.62-0.98-1.3-1.29-1.83
						l-0.33-0.25l-9.47,5c-1.07,0.16-2.18,0.14-3.35-0.06l-0.21,0.4V191.59z"/>
					<path class="st23" d="M290.31,64.72c-1.01-0.22-0.74,0.06-1.5,0.28c-0.81,0.24-1.7,0.31-2.44,0.76c-1,1.02-3.26,6.05-4.24,6.5
						c-0.33,0.15-0.46-0.65-0.73-0.77c-1.08-1.37-2.02-3.09-3.12-4.42c-0.16-0.2-0.66-0.74-0.84-0.86
						c-0.57-0.36-3.05-0.75-3.68-0.56c-0.32,0.1-1.62,0.75-1.65,1.03l0.14,0.28l8.46,13.39l0.47,0.46c2.29,0.39,4.59,0.85,6.8,1.6
						l0.63-0.18c-0.37-0.88-1-1.72-1.54-2.51c-0.42-0.63-1.83-2.12-1.63-2.82l6.66-10.11c0.18-0.24,0.38-0.44,0.65-0.57
						c-0.58-0.69-1.59-1.32-2.45-1.51H290.31z"/>
					<path class="st24" d="M128.48,118.26c0.14,4.79,0.38,9.63,0.56,14.42c0.05,1.16-0.04,2.33,0,3.48
						c2.83,0.06,5.66,0.23,8.47,0.19c-0.31-2.8-0.37-5.67-0.18-8.6c-0.28-2.85-0.35-5.78-0.18-8.75c0.13-0.64-0.07-0.89-0.51-1.11
						c-0.35-0.18-6.95-0.05-7.93,0l-0.22,0.38L128.48,118.26z"/>
					<path class="st25" d="M115.69,117.7c0.04,0.81-0.04,1.64,0,2.45l-0.21,0.67c0.15,4.42,0.21,8.8,0.19,13.14l0.41,0.51
						c0.04,0.39,0.06,0.75,0.38,1.03c0.9,0.77,6.38,0.44,7.9,0.48c0.16-0.93-0.15-1.86-0.2-2.73c-0.18-4.23,0.08-8.74-0.37-12.92
						c-0.12-0.78-0.15-1.58-0.08-2.4l-0.41-0.22c-2.29,0.07-4.56-0.02-6.83-0.27L115.69,117.7z"/>
					<path class="st19" d="M143.91,92.81c-1.46,2.28-2.41,5.35-3.02,8.01c-0.03,0.13,0,0.27,0.04,0.41c0.04,0.14,0.1,0.29,0.16,0.44
						c1.18,1.38,1.45,3.79,0.6,5.41c-0.28,0.55-0.88,0.84-1.17,1.38c0.91,0.75,3.13,0.78,4.14,0.19c1.06,0.6,2.88,0.75,3.95,0.19
						c0.51,0.56,4.66,0.54,4.94,0.29c0.13-0.11,0.15-0.31,0.14-0.49l0.15-0.56c-2.03-5.28-3.95-10.7-5.76-16.28l-0.58-1.07
						c-1.64,0.8-2.11,1.05-3.58,2.07L143.91,92.81z"/>
					<path class="st26" d="M150.12,89.41c-0.92,0.32-1.77,0.9-2.63,1.32c1.16,3.82,2.41,7.65,3.75,11.41
						c0.7,1.96,1.53,4.72,2.44,6.5c-0.16,0.4-0.03,0.91,0.44,1.53c0.05,0.47,0.21,0.78,0.51,0.92c0.68,0.57,1.33,0.03,2-0.34
						c1.22-0.65,2.41-1.46,3.36-2.48c0.15-0.33-1.68-4.58-1.98-5.28l0.06-0.82l-2.29-5.78l-0.6-0.57c-0.18-0.51-0.37-1.07-0.55-1.61
						c-0.5-1.41-1.08-2.78-1.55-4.2c-0.98-0.13-2.05-0.93-2.98-0.59L150.12,89.41z"/>
					<path class="st27" d="M208.61,102.3c-0.44,0.76-0.71,1.64-0.97,2.47c-0.73,2.4-1.35,4.92-1.27,7.45
						c-0.85,1.31-1.27,3.19-0.94,4.71l0.29,0.37c1.46,0,2.91,0.41,3.97,1.46l0.43,0.02c0.81-1.07,1.84-1.8,3.12-2.35l0.09-0.43
						c0.31-1.3,0.49-2.65,0.56-4.04c0.13-0.74,0.36-1.37,1.21-1.29l2.75,0.03l0.37-0.35l0.22-0.36c-2.06-3.21-4.13-6.44-6.18-9.65
						l-0.43,0.02c-0.14,0.05-0.48-0.03-0.75,0.09c-0.8,0.33-1.68,0.69-2.21,1.43C208.79,102,208.69,102.15,208.61,102.3z"/>
					<path class="st12" d="M248.72,86.77c0.05,0.01-1.13,1.45-1.27,1.56c-0.51,0.45-1.12,0.81-1.74,1.1c-0.64,0.3-1.32,0.5-2,0.66
						c-0.68,0.15-1.37,0.27-2.08,0.25c-0.62-0.02-1.21-0.29-1.83-0.36c-0.41-0.05-1.03,1.53-0.94,1.85c0.24,0.73,1.45,0.37,1.67,1.1
						c0.8,2.84,2.36,5,5.26,6.02c1,0.35,2.24,0.65,3.3,0.42c0.56-0.16,1.06-0.41,1.57-0.66c0.51-0.25,1.13-0.63,1.56-1
						c0.66-0.58,1.17-1.33,1.48-2.15c0.63-1.7,0.44-3.64-0.48-5.2c-0.27-0.46-1.71-1.89-2.17-2.26c-0.63-0.52-1.56-1.1-2.35-1.32
						L248.72,86.77z"/>
					<path class="st12" d="M201.68,90.93c-0.68-1.08-0.99-2.34-1.89-3.32c-0.84-0.91-2.07-0.66-3.19-1.1
						c-0.71-0.29-2.61-1.56-3.01-2.17c-1.7,0.84-3.14,1.86-4.1,3.53c-1.73,2.98-1.09,6.85,2.36,8.13c3.5,1.3,7.57-0.34,9.3-3.6
						c0.24-0.46,0.44-0.94,0.53-1.45L201.68,90.93z"/>
					<path class="st28" d="M136.76,108.64l-0.51,0.23c0.03,2.18,0,4.35-0.06,6.52l-7.48-0.15l-0.23,0.37c0.03,0.88-0.03,1.76,0,2.64
						h8.28c0.05,2.74-0.06,5.47,0,8.2c0,0.46,0.2,0.84,0.21,1.3c0.05,2.41-0.23,5.22-0.01,7.55c0.05,0.49,0.14,0.78,0.56,1.03
						c0.19,0,0.38,0,0.57,0s0.25,0,0.38,0c1.39-0.13,1.46-0.42,1.54-1.77c-0.1-5.35-0.18-10.68-0.22-15.96l4.63-0.16l0.26-0.39
						c0.16-0.04,0.16-0.1,0-0.19l0.19-1.7c0.36-0.18,0.36-0.39,0-0.57l-0.19-0.37l-4.87,0.17c-0.23-1.48-0.3-3.01-0.2-4.57
						c0.13-0.99-0.07-1.72-0.58-2.21c-0.75,0-1.51,0-2.26,0H136.76z"/>
					<path class="st29" d="M192.27,123.72c0.63-0.32,1.38-0.63,2.07-0.85c0.31-0.1,1.08-0.44,1.32-0.08h0.44
						c1.13-2.03,3.09-2.27,5.21-2.43c0.18-0.1,1.56-1.97,1.32-2.29c0.32-0.23,0.2-0.41-0.06-0.65c-0.02-0.44,1.5-5.2,1.83-5.58
						c0.5-0.61,1.62-0.69,1.49,0.34c0.15,0.12,0.31,0.13,0.5,0.05c0.64-3.31,1.27-6.62,2.44-9.79c-0.01-0.36,0.18-0.74-0.39-0.49
						c-5.06,2.2-9.61,9.92-12.38,14.57C194.69,118.81,193.14,121.21,192.27,123.72z"/>
					<path class="st30" d="M212.97,99.59c-0.78,0.21-1.03,0.72-1.13,0.75l6.4,10l0.2,0.4c2.09,0.25,4.21,0.62,6.23,1.2l0.34-0.29
						l0.22-0.44c-0.75-0.93-1.32-1.9-1.68-2.91l6.31-7.55l-0.15-0.41c0,0.03,0.25-0.33,0.23-0.47c-0.21-1.3-3.23-0.34-3.94-0.15
						c-0.62,0.18-1.28,0.42-1.9,0.71c-0.67,0.31-0.99,0.64-1.47,1.21c-0.49,0.58-0.98,1.16-1.47,1.72c-0.55,0.61-0.83,1.1-1.51,0.38
						c-0.71-0.75-1.9-2.94-2.65-3.38c-0.33-0.2-3.16-0.89-3.6-0.91C213.17,99.46,213.11,99.55,212.97,99.59z"/>
					<path class="st10" d="M293.7,62.46c0.16,0.37,0.78,0.54,1.13,0.66c5.73,1.91,13.96-1.4,15.01-7.77
						c0.14-0.81,0.34-1.65,0.25-2.47c-0.03-0.32-0.19-1.12-0.5-1.3c-0.46-0.24-0.91,0.38-1.16,0.67c-0.97,1.13-2.42,0.91-3.73,1.1
						c-0.29,0.04-3.06-0.14-3.1-0.04c-1.15,2.72-2.87,5.23-5.08,7.18C295.57,61.34,294.73,61.8,293.7,62.46z"/>
					<path class="st31" d="M292.94,183.48c-0.06,0.39,0.14,0.63,0.3,0.93c0.78,1.47,1.59,2.98,2.52,4.34c0.06,0,0.13,0,0.19,0
						l0.38,0.19c2.57,0.28,3.62,0.13,5.97-0.91c2.87-1.26,5.67-2.99,8.58-4.22c0.36-0.15,0.69-0.25,1.07-0.34
						c0.27-0.33,0.16-0.55,0.06-0.9c-0.25-0.97-0.98-2.11-1.37-3.05c-5.73,1.79-11.75,3.09-17.69,3.96V183.48z"/>
					<path class="st30" d="M248.91,182.73c0.13,0.76,0.94,1.48,1.5,1.98c2.15,1.87,6.43,3.19,9.18,4.19
						c0.89,0.32,5.15,1.54,5.51,1.93c0.48,0.1,0.39-0.22,0.51-0.52c0.8-1.98,1.46-4.05,2.12-6.08c-4.71-0.76-9.47-1.43-14.11-2.74
						c-0.38-0.11-0.88-0.43-1.13-0.47c-0.71-0.12-2.52,0.99-3.28,1.35c-0.19,0.08-0.27,0.33-0.3,0.35V182.73z"/>
					<path class="st32" d="M163.66,177.26c0.14,0.25,0.38,0.5,0.57,0.75c0.44,0.13,0.8,0.49,1.28,0.15c0.16-0.13,1.03-1.59,1.21-1.9
						c2.45-4.45,4.82-9.85,6.96-14.51c0.99-2.15,1.99-4.33,2.93-6.5c0.19-0.43,0.43-0.88,0.43-1.36c-0.56-0.82-1.03-1.7-1.7-2.46
						c-3.3,7.78-7.45,15.23-10.87,22.95c-0.24,0.56-0.87,1.77-0.97,2.25c-0.06,0.28,0.05,0.4,0.16,0.62H163.66z"/>
					<path class="st33" d="M195.47,184.43l-0.15,0.13l-0.6,2.33c0.55,0.12,1.41,1.21,1.89,1.59c2.38,1.85,8.09,3.43,11.09,4.53
						c0.29,0.11,0.65,0.1,0.75,0.47c0.57-1.63,1.39-3.25,1.88-5c0.09-0.31,0.28-0.53,0-0.85
						C205.43,187.02,200.11,186.07,195.47,184.43L195.47,184.43z"/>
					<path class="st34" d="M218.02,52.28c-1.83,0.23-5.35-0.11-5.81,2.45c-0.55,3.12,3.08,4.44,5.57,4.7
						c2.02,0.21,4.26,0.01,6.17-0.71c0.91-0.35,1.87-0.87,2.39-1.73c0.85-1.42,0.78-2.62-0.57-3.53c-1.5-1-2.96-1.35-4.74-1.09"/>
					<path class="st35" d="M121.33,108.64c-1.71-0.05-4.09-0.16-5.74,0c-0.4,0.04-0.98,0.16-1.2,0.49
						c-0.15,0.23-0.19,0.47-0.22,0.73c-0.14,1.31-0.13,4.16,0.02,5.46c0.1,0.86,0.4,1.73,1.3,1.99c0.24-0.31,0.44-0.75,0.59-1.33
						c2.39-0.19,4.82-0.24,7.28-0.18l0.22-0.38c-0.05-1.81,0.14-3.79,0-5.57c-0.02-0.28-0.03-0.9-0.33-1.02
						c-0.65-0.23-1.27-0.16-1.94-0.19L121.33,108.64z"/>
					<path class="st36" d="M258.32,52.47c0.24,0.67,0.46,0.94,0.75,1.51c2.45,2.08,6.27,0.21,6.59-2.92
						c0.33-3.33-2.04-6.4-5.54-5.93c-2.79,0.37-3.16,3.43-2.5,5.68c0.18,0.62,0.47,1.02,0.7,1.65L258.32,52.47z"/>
					<path class="st37" d="M157.27,95.25c-0.15,0.03-0.37,0.14-0.35,0.24c0.53,1.86,1.32,3.64,2.14,5.39l0.46,0.03
						c1.55-1.71,3.17-3.44,4.7-5.19c1.27-1.45,2.53-3.27,3.86-4.63c0.29-0.3,0.69-0.51,1.04-0.74c-0.13-0.71-1.21-0.91-1.7-1.51
						c-0.12,0.04-0.39-0.04-0.61,0.04c-1.72,0.58-3.43,1.11-5.22,1.38l-4.16,4.33c-0.19,0.2-0.19,0.42-0.18,0.66H157.27z"/>
					<g>
						<defs>
							<rect id="SVGID_00000150784472518621662470000006262691152665436825_" x="110.38" y="118.83" width="5.89" height="16.29"/>
						</defs>
						<clipPath id="SVGID_00000161604876402484100510000016198059639253862051_">
							<use xlink:href="#SVGID_00000150784472518621662470000006262691152665436825_"  style="overflow:visible;"/>
						</clipPath>
						<g style="clip-path:url(#SVGID_00000161604876402484100510000016198059639253862051_);">
							<path class="st39" d="M116.06,134.47c-0.15-1.74,0.05-3.77,0-5.57c-0.07-2.88-0.24-5.9-0.38-8.77
								c-2.02,0.57-3.92,1.89-4.66,3.91c-0.65,1.77-0.62,4.69,0.06,6.46c0.72,1.94,2.82,3.99,4.98,3.96V134.47z"/>
						</g>
					</g>
					<path class="st40" d="M230.28,187.44c0.45,1.48,1.56,2.68,2.07,4.15c1.28-0.17,2.57,0.54,3.81-0.04l9.55-5.05
						c-0.05-0.09-0.05-0.33-0.15-0.5c-0.33-0.59-0.63-1.18-0.98-1.76c-4.47,1.47-9.62,2.57-14.31,3.21L230.28,187.44z"/>
					<path class="st41" d="M197.16,138.24c0.08-0.22,1.2-2.19,0.94-2.26c-0.85-0.23-1.69-0.46-2.51-0.77
						c-1.57-0.62-3.11-1.4-4.44-2.46c-0.62-0.49-1.19-1.03-1.65-1.68c-0.1-0.14-1.02-1.81-0.81-1.89c-0.33,0.11-0.39,0.43-0.54,0.69
						c-3.02,5.75,3.73,10.8,9,8.36V138.24z"/>
					<path class="st42" d="M145.61,153.69c0.42,0.59,0.07,0.65,0.93,1.13c1.02,0.24,1.65-0.81,2.11-1.56
						c0.99-1.63,2.81-5.4,3.35-7.19c0.36-1.19,0-2.21-1.41-1.99c-0.87,0.14-1.65,2.58-2.07,3.4c-0.88,1.75-1.83,3.47-2.65,5.28
						c-0.13,0.31-0.34,0.58-0.28,0.95L145.61,153.69z"/>
					<path class="st26" d="M136.19,99.97c1.59-0.19,3.83,0.44,4.89,1.7c0.6-3.06,1.83-5.93,2.82-8.86c-2.7,1.87-5.02,3.56-7.15,6.13
						C136.53,99.22,136.25,99.6,136.19,99.97z"/>
					<path class="st43" d="M313.46,47.48c-0.06,1.23,2.57,2.47,3.2,1.13c1.27-1.15,1.88-2.93,0.75-4.43
						c-1.16-1.54-3.03-1.65-4.12,0.03c-0.75,1.17-0.4,2.12,0.16,3.28H313.46z"/>
					<path class="st44" d="M309.33,51.52c0.84,0.52,1.29,0.69,1.97,0.79c0.76,0.11,1.52,0.2,2.29,0.28c1.41,0.16,3.23,0,4.58,0.45
						c0.56,0.19,1.13,0.14,1.47-0.36c1.24-1.79-1.12-2.16-2.41-2.1c-1.56,0.08-3.13-0.15-4.64-0.5c-0.63-0.15-1.49-0.61-1.95-0.24
						C310.53,49.93,309.46,51.66,309.33,51.52z"/>
					<path class="st45" d="M115.49,117.31c0,0.11,0.19,0.28,0.19,0.38c2.6,0.48,5.27,0.37,7.91,0.38c0.05,0.58-0.06,1.23-0.01,1.8
						c0.03,0.3,0.2,0.43,0.2,0.45c-0.05-1.47,0.06-2.97,0.01-4.44c0-0.3-0.19-0.43-0.19-0.45l-7.4,0.03
						c-0.78,0.4-0.76,1.07-0.69,1.86V117.31z"/>
					<path class="st46" d="M216.63,52.56c-0.72,0.66-0.72,1.97,0.09,2.57c0.9,0.65,2.64,0.65,3.69,0.56
						c0.87-0.08,1.93-0.52,2.12-1.47c0.48-2.4-4.15-2.6-5.57-1.89C216.82,52.38,216.72,52.47,216.63,52.56L216.63,52.56z"/>
					<path class="st47" d="M313.46,47.46c-0.51-0.4-1.07-0.59-1.57,0.21c-0.3,0.48-0.78,1.56-0.42,2.09
						c2.29,0.8,4.22,1.02,6.31,0.93c0.02-0.66-0.12-1.85-0.75-2.17c-0.18-0.09-0.26,0.07-0.38,0.1c-1.01,0.24-1.62,0.24-2.4-0.44
						C314.02,47.97,313.75,47.68,313.46,47.46z"/>
					<g>
						<defs>
							<rect id="SVGID_00000108999656087662880690000014862644752680068754_" x="317.2" y="49.59" width="4.76" height="4.07"/>
						</defs>
						<clipPath id="SVGID_00000048472026621943002560000005621906522041731987_">
							<use xlink:href="#SVGID_00000108999656087662880690000014862644752680068754_"  style="overflow:visible;"/>
						</clipPath>
						<g style="clip-path:url(#SVGID_00000048472026621943002560000005621906522041731987_);">
							<path class="st49" d="M319.14,53.24c-0.21-0.02-0.4-0.05-0.6-0.08c-0.13-0.02-0.25-0.1-0.37-0.12
								c0.41,0.07,0.82-0.07,1.06-0.41c0.22-0.29,0.35-0.8,0.23-1.16c-0.09-0.24-0.28-0.35-0.49-0.46
								c-0.29-0.15-0.62-0.19-0.92-0.23c-0.16-0.02-0.51,0-0.63-0.12c0.05-0.05,0.21-0.08,0.28-0.08c0.06-0.01,0.13,0,0.19,0
								c0.16,0,0.3-0.01,0.46-0.02c0.31-0.02,0.62-0.04,0.92-0.05c0.56-0.02,1.15,0,1.66,0.22c1.02,0.48,0.76,1.95-0.14,2.4
								c-0.34,0.18-0.74,0.18-1.11,0.16c-0.19,0-0.36-0.02-0.54-0.04L319.14,53.24z"/>
						</g>
					</g>
					<path class="st50" d="M275.82,87.72c-0.65,0.72-1.17,1.53-1.78,2.26c-1.36-2.6-3.48-4.47-6.59-4.15
						c-0.47,0.05-1.38,0.34-1.79,0.57c-0.77-0.49-1.87,1.19-2.2,1.88c-0.42,0.88-0.57,1.64-0.38,2.6c0.12,0.62,0.64,2.18,1.26,2.3
						c2.07,0.65,4.57,0.64,6.72,0.34c-0.24,2.15-0.05,4.3,0.24,6.43c-0.37,0.87-0.37,1.77,0,2.64l-0.25,0.98
						c-0.24,4.5-0.38,9.09-0.34,13.55c0.01,1.2,0.05,2.39,0.14,3.57c0,0.13,0.08,0.24,0.16,0.38c0.08,0.13,0.19,0.24,0.29,0.36
						c1.15,0.02,2.3,0.14,3.44,0.08c0.72-0.03,1.78,0.36,2.16-0.51c0.37-0.79,0.03-1.51,0.02-2.3l-0.03-13.58
						c0-0.92-0.18-1.82-0.34-2.72c0.36-0.11,0.36-0.28,0-0.38c0.16-0.29,0.15-0.65,0-0.94c0.54-0.05,0.72-1.12,0.19-1.32
						c0.51-0.18,0.51-0.39,0-0.56l-0.19-2.07c0.36-0.11,0.36-0.27,0-0.38c0.23-0.33,0.38-0.56,0-0.75c0.36-0.18,0.36-0.39,0-0.56
						c0.16-0.46,0.15-1.03,0-1.51c0.27-0.07,0.44-0.13,0.38-0.36c2.12,0.14,4.18,0.01,6.2-0.39c0.78-0.53,1.41-1.13,1.74-2.08
						c0.23-0.67,0.45-1.94-0.24-2.26c0.77-0.47-0.49-1.91-0.99-2.39c-1.63-1.52-4-1.68-5.97-0.68c-0.71,0.35-2.06,1.12-1.88,1.94
						L275.82,87.72z"/>
					<path class="st51" d="M296.33,115.83c-0.93-0.18-1.62,0.84-2.37,1.11c-0.85,0.3-1.51,0.74-1.96,1.32
						c0.39,3.96,0.78,7.92,1.16,11.88c0.19,1.91,0.38,3.83,0.57,5.75c0.13,1.37,0.14,2.94,0.47,4.28c0.25,1.04,1.22,1.36,2.23,1.29
						c0.27-0.02,0.52-0.17,0.77-0.19c1.44-0.14,3.24-0.15,4.6-0.48c0.66-0.15,1.2-0.68,1.27-1.37c0.03-0.3-0.13-1.6-0.16-2.02
						c-0.72-6.62-1.99-13.2-2.79-19.82c-0.05-0.37-0.15-0.99-0.15-1.36c0-0.37-1.02,0.22-1.34,0.3c-0.93,0.22-1.48-0.52-2.29-0.68
						V115.83z"/>
					<path class="st11" d="M259.63,101.48c-1.78,0.55-3.15,2.2-4.1,3.71c-1.32,2.1-2.3,4.77-2.67,7.22
						c-0.12,0.78-0.16,1.59,0.08,2.34c0.12,0.41,0.33,0.78,0.54,1.16c0.19,0.34,0.41,0.47,0.69,0.72c0.21,0.19,0.36,0.41,0.59,0.58
						c1.72,1.27,2.86,1.62,5.07,1.43c0.89,0.68,2.66-0.27,3.54-0.85c5.56-3.73,3.93-13.33-2.96-14.34c0.01-0.77-0.04-1.34-0.38-1.96
						C259.89,101.12,259.73,101.11,259.63,101.48z"/>
					<path class="st11" d="M284.1,102.61c-2.07,0.3-2.11,2.78-1.69,4.4c-2.92,3.76-1.27,9.13,2.92,11.17
						c0.82,0.4,2.4,1.11,3.09,0.45c1.04,0.07,2.59-0.04,3.58-0.38c1.58-0.54,3-1.47,4.33-2.46l-9.03-13.57
						c-0.05-0.17-0.11-0.16-0.19,0C286.52,101.73,284.57,102,284.1,102.61z"/>
					<path class="st52" d="M259.83,118.63c-0.42,2.82,1.65,2.88,3.86,2.92c2.5,0.04,5.09-0.13,7.63-0.1
						c-0.3-2.32-0.22-4.73-0.2-7.09c0.03-3.92,0.19-7.83,0.2-11.77l-0.24-0.45c-1.37-0.14-3.14-0.31-4.37,0.08
						c-0.02-0.15-0.07-0.37-0.17-0.38c-1.42-0.11-3.59-0.1-5.01,0l-0.28,0.38c-0.06-0.47-0.47-0.73-1.22-0.75
						c-0.01,0.45-0.08,2.04,0.08,2.28c2.14,0.48,3.92,1.26,5.08,3.2C267.96,111.63,265.53,118.12,259.83,118.63L259.83,118.63z"/>
					<path class="st35" d="M276.57,102.43c-0.1,5.43-0.03,10.85,0,16.31c0,0.46,0.01,0.98,0.02,1.45c0,0.51-0.15,0.95-0.19,1.45
						c0.02-0.22,4.13-0.19,4.36-0.19c2.07,0.02,4.14,0.05,6.22-0.03c1.35-0.23,1.56-1.6,1.45-2.78c-5.36-0.37-8.88-5.97-6.18-10.81
						c0.13-0.23,0.44-0.41,0.51-0.63c0.14-0.46-0.14-0.85-0.17-1.28c-0.1-1.58,0.22-2.38,1.51-3.3l-0.51-0.36
						c-2.11-0.15-4.23-0.22-6.36-0.2L276.57,102.43L276.57,102.43z"/>
					<path class="st53" d="M294.51,142.73c0.07-0.2,0.07-0.4,0.13-0.6c-0.26,0.91-0.02,1.76,0.07,2.68
						c0.12,1.31,0.29,2.61,0.47,3.91c0.88,6.44,1.27,12.97,2.07,19.4c0.14,1.09,0.56,2.39,1.76,2.68c2.32-0.56,1.09-2.89,0.9-4.59
						c-0.9-7.98-1.59-15.96-2.88-23.88c-0.04-0.23-0.15-0.45-0.15-0.69c0,0.23-1.71,0.38-1.94,0.26c-0.19,0.24-0.34,0.53-0.43,0.82
						H294.51z"/>
					<path class="st54" d="M234.42,102.8c-1.03-0.46-2.21,1.39-2.7,2.26c-1.47,2.62-2.01,5.98-2.02,8.95l0.39,0.29
						c0.48,0.28,0.66-0.09,0.57-1.12c1.18-0.2,1.33,0.11,1.57,1.17l0.63,3.47c0.76,1.23,0.94,2.2,0.56,2.88l-2.92,1.78
						c-1.02,0.55-1.23,1.02-0.6,1.43c2.92,1.69,4.62,4.34,2.45,7.55l-0.19,0.46c0.98,1.86,1.92,3.71,2.82,5.57
						c0.25,0.34,0.6,0.55,0.94,0.19c1.03,0.35,1.09,0.15,1.94-0.41c1.54-1.01,3.46-2.71,4.64-4.12c5.78-6.87,4.49-14.27,0.41-21.62
						c-1.93-3.49-4.52-6.97-8.12-8.84c-0.15-0.07-0.25,0.05-0.38,0.11H234.42z"/>
					<path class="st55" d="M234.99,137.49c-0.29-0.19-0.57-0.06-0.82,0.39c-1.18,0.77-1,1.77-0.43,2.83
						c0.66,1.25,0.83,2.76,1.08,4.1c0.2,1.05,0.62,2.12,0.86,3.17c1.42,5.8,2.23,11.95,3.27,17.84c0.2,1.09,0.58,4.26,1.42,4.8
						c0.51,0.33,1.14,0.32,1.59-0.07c1.19-1.03,0.24-3.1,0.04-4.4c-1.55-9.56-3.43-18.38-6.03-27.7c-0.08-0.28-0.35-0.45-0.03-0.81
						c-0.23-0.07-0.42-0.26-0.66-0.33c-0.08,0.04-0.2,0.07-0.28,0.14V137.49z"/>
					<path class="st56" d="M233.63,140.11c-0.01-0.49-0.05-1.25-0.55-1.38c-0.2-0.05-3.45,1.23-3.71,1.36l-0.13,0.41
						c-0.28-0.62-2.58-0.58-2.92,0c-0.15,1-0.16,2.03,0,3.02c-0.01,1.3-0.22,4.94,0.36,5.91c0.11,0.18,0.53,0.31,0.71,0.46l5.9-0.04
						c1.14-0.48,0.93-1.52,0.93-2.56c0-1.28-0.1-2.56-0.27-3.83c-0.14-1.04-0.3-2.1-0.34-3.16
						C233.63,140.24,233.63,140.18,233.63,140.11z"/>
					<path class="st11" d="M220.68,136.73c-0.2,0.04,1.09,1.9,1.24,2.04c0.58,0.56,1.3,0.96,2.06,1.24
						c1.86,0.71,3.33,0.49,5.27,0.49c0.22,0,2.01-0.65,2.4-0.8c1.42-0.53,2.2-1.25,3.34-2.22c0.37-0.59-0.46-1.26-0.47-1.89
						l-2.16-4.14C230.42,134.31,223.94,136.21,220.68,136.73z"/>
					<path class="st55" d="M203.89,139.3c-0.18,0.81-0.47,1.55-0.57,1.99c-0.99,4.47-2.56,9.16-3.33,13.63
						c-0.1,0.57-0.31,1.93-0.18,2.4c0.3,1,2.13,1.32,2.56,0.18c0.14-0.59,0.27-1.2,0.41-1.79c0.9-3.95,1.79-7.89,2.69-11.83
						c0.38-1.68,0.85-3.36,1.15-5.05c0.13-0.79-0.3-0.75-1.09-1.01c-1.2-0.41-1.38,0.15-1.67,1.47L203.89,139.3z"/>
					<path class="st57" d="M213.78,139.76c-0.25-0.07-0.84,0-1.33,0c-0.29,0-0.55,0.21-0.59,0.5c-0.15,0.84-0.15,2.41-0.2,2.79
						c-0.46,4.2-0.85,8.42-1.34,12.61c-0.12,1.01-0.85,3.86-0.46,4.63c0.45,0.9,2.2,1.16,2.7,0.25c0.36-0.63,0.14-1.07,0.21-1.68
						c0.67-5.51,1.43-11.04,1.71-16.58c0.04-0.75,0.2-2.28-0.69-2.53H213.78z"/>
					<path class="st16" d="M187.75,180.27c0-0.69,0-1.38,0-2.07C187.41,178.68,187.47,179.75,187.75,180.27z"/>
					<path class="st58" d="M286.78,45.36c-2.79-0.24-4.83,1.74-5.28,4.41c-0.38,2.28,1.77,5.28,4.05,5.67
						C293.41,56.78,294.05,46,286.78,45.36z"/>
					<path class="st59" d="M270.62,48.54c-1.42-0.24-1.72,0.68-1.56,1.95c0.16,1.27,1.33,2.48,2.45,3.01
						c1.77,0.84,4.12,0.37,5.22-1.33c0.68-1.06,1.18-3.57-0.63-3.48c-0.99,0.05-0.73,0.71-0.93,1.35c-0.62,1.97-3.12,1.97-3.87,0.1
						c-0.18-0.43-0.21-1.44-0.67-1.59L270.62,48.54z"/>
					<path class="st60" d="M281.78,46.41c0.34-0.76,0.27-1.69-0.59-2.42c-2.11-1.81-4.59,0.94-3.11,2.93
						c1.22,1.64,3.1,0.83,3.71-0.5V46.41z"/>
					<path class="st61" d="M264.82,45.84c0.15,0.52,0.48,1.01,0.99,1.32c0.51,0.32,1.13,0.38,1.71,0.19
						c1.06-0.34,1.52-1.43,1.29-2.49c-0.27-1.26-1.68-1.94-2.85-1.45c-1.06,0.44-1.41,1.48-1.15,2.42H264.82z"/>
					<path class="st62" d="M165.42,70.8c-0.47-0.1-1.35-0.08-1.84-0.04c-3.26,0.28-4.88,3.11-3.86,6.14
						c1.78,5.32,10.29,4.67,9.4-2.07C168.9,73.2,167.01,71.12,165.42,70.8z"/>
					<path class="st63" d="M135.63,74.52c1.02,2.72,5.27,3.34,7.23,1.31c1.38-1.43,1.41-2.85,0.95-4.71
						c-1.2-4.99-7.8-5.07-8.52,0.15c-0.16,1.22,0,1.58,0.29,2.64C135.65,74.13,135.59,74.43,135.63,74.52z"/>
					<path class="st64" d="M149.14,72.11c-0.47-0.48-1.61-0.21-1.82,0.47c-0.49,1.67,1.15,3.67,2.6,4.31
						c2.04,0.89,4.74-0.14,5.38-2.34c0.16-0.58,0.2-1.38-0.28-1.83c-0.41-0.38-1.01-0.32-1.41,0.06c-0.34,0.33-0.37,0.86-0.62,1.27
						c-0.54,0.87-1.42,1.02-2.32,0.6c-1.43-0.67-1-1.95-1.54-2.51V72.11z"/>
					<path class="st65" d="M155.2,95.82c0.93,2.59,1.76,4.63,2.82,7.16c0.07-0.77,0.98-1.48,1.5-2.07
						c-0.25-0.38-0.48-0.89-0.65-1.32c-0.34-0.81-1.56-3.67-1.6-4.34C156.46,95.13,155.87,95.44,155.2,95.82z"/>
					<path class="st66" d="M158.27,67.21c-0.55-0.06-1.41,0.39-1.74,0.81c-0.9,1.11-0.21,3.26,1.23,3.47
						c3.46,0.53,3.24-3.98,0.52-4.3V67.21z"/>
					<path class="st67" d="M146.39,66.15c-0.28-0.11-0.58-0.16-0.92-0.15c-1.04,0.05-1.92,0.72-1.92,1.82
						c-0.01,2.94,4.22,2.87,4.14,0.2C147.65,67.11,147.13,66.44,146.39,66.15z"/>
					<path class="st68" d="M229.58,81.72c-3.91-0.64-6.7,2.74-5.27,6.42c1.35,3.52,6.2,4.45,8.39,1.15
						C234.51,86.57,232.9,82.26,229.58,81.72z"/>
					<path class="st36" d="M200.18,87.06c0.16,0.3,0.36,0.58,0.65,0.85c0.32,0.3,0.6,0.66,0.97,0.92c2.24,1.51,5.82,0.8,6.66-1.94
						c1.12-3.68-1.88-8-5.89-6.66c-2.32,0.78-3.07,3.23-2.76,5.51c0.07,0.52,0.18,0.94,0.37,1.33V87.06z"/>
					<path class="st67" d="M213.23,83.61c-1.35-0.15-1.35,1.46-1.09,2.35c0.23,0.8,0.78,1.46,1.45,1.93
						c1.38,0.95,3.37,1.17,4.86,0.32c0.47-0.27,0.88-0.64,1.19-1.08c0.42-0.62,0.66-1.59,0.5-2.32c-0.07-0.34-0.23-0.67-0.58-0.78
						c-0.32-0.1-1.03,0.1-1.25,0.37c-0.2,0.25-0.22,0.75-0.37,1.06c-0.7,1.44-2.95,1.21-3.7-0.24
						C213.96,84.67,214.02,83.71,213.23,83.61L213.23,83.61z"/>
					<path class="st69" d="M223.17,78.96c-0.82-0.28-1.79-0.07-2.34,0.68c-0.77,1.06-0.35,2.5,0.73,3.14
						c1.93,1.15,3.94-0.88,2.74-2.93C224.05,79.42,223.64,79.12,223.17,78.96z"/>
					<path class="st70" d="M208.09,81.11c0.23,0.54,0.66,0.99,1.21,1.2c0.59,0.23,1.24,0.16,1.78-0.16
						c2.45-1.46,0.28-5.23-2.32-3.64C207.81,79.1,207.69,80.21,208.09,81.11z"/>
					<path class="st36" d="M200.55,88.48c-0.08-0.16-0.19-0.18-0.19-0.19L200.55,88.48z"/>
					<path class="st36" d="M200.74,88.85c-0.03-0.1-0.09-0.16-0.19-0.19C200.58,88.76,200.64,88.84,200.74,88.85z"/>
					<path class="st36" d="M200.36,88.09c-0.05-0.08-0.07-0.18-0.19-0.19C200.22,88,200.27,88.07,200.36,88.09z"/>
					<path class="st36" d="M208.83,82.07l-0.38-0.38C208.6,81.87,208.57,81.9,208.83,82.07z"/>
					<path class="st36" d="M208.26,81.31l-0.19-0.19C208.11,81.33,208.26,81.3,208.26,81.31z"/>
					<path class="st51" d="M275.82,87.72c1.72-1.88,4.06-2.82,6.53-1.73c0.99,0.44,2.18,1.77,2.32,2.86l0.24,0.5
						c1.25,0.05,2.49,0.08,3.73,0.13c0.85,2,1.35,4.17,1.32,6.36l0.14,1.86c-0.09,0.42,0.69-1.02,1-1.1c0.37-0.1,4.66-3.99,4.79-4.3
						c0.34-0.89-1.04-6.35-1.73-6.85c-0.22,0.04-0.42-0.01-0.63-0.16c-0.99-1.08-3.51-2.49-4.89-3.02c-2.29-0.87-5.46-1.48-7.9-1.88
						c-2.95-0.48-4.43-1.22-5.21,2.22c-0.24,1.03-0.63,3.09-0.64,4.09c0,0.66,0.21,1.08,0.95,1.03H275.82z"/>
					<path class="st71" d="M287.3,102.23c0.67-0.1,2.3-1.54,2.92-2.07c1.54-1.32,2.98-2.82,4.51-4.14c0.82-0.71,3.6-2.51,3.83-3.34
						c0.13-0.47-0.36-1.36-0.49-1.89c-0.56-2.22-1.01-4.49-1.61-6.68c-0.19-0.69-0.56-2.34-0.91-2.86c-0.6-0.93-2.49-0.58-2.42,0.71
						c0.05,0.97,0.77,2.41,0.93,3.42l-0.56-0.1c0.16,0.16,0.42,0.5,0.54,0.69c0.41,0.68,1.37,4.21,1.5,5.11
						c0.05,0.35,0.11,0.71,0.01,1.06l-4.38,4.09l-0.85,0.81c-0.34,0.38-0.59,0.07-0.76,0.68c-0.49-0.24-1.48,0.83-1.32,1.32
						c-0.5,0.51-1.04,0.93-1.64,1.27c-0.21,0.35-0.15,2.07,0.51,1.94c0.06,0,0.13,0,0.19,0V102.23z"/>
					<path class="st11" d="M152.37,120.33c-0.38-0.16-0.51,0-0.65,0.31c-0.79-0.13-1.6-0.18-2.41-0.15l-0.32,0.41
						c-0.11-0.14-0.23-0.3-0.39-0.31c-0.82-0.03-3.43,1.52-3.4,2.56c-0.02,1.06-0.14,2.07-0.34,3.03l-0.43-0.1
						c-1.42,1.8-1.95,3.91-1.52,6.18c0.19,0.96,0.51,1.95,1.02,2.77c0.47,0.75,1.55,1.17,2.28,1.67c0.46,0.31,0.97,0.56,1.48,0.75
						c1.03,0.37,2.14,0.5,3.25,0.45c1.13-0.05,2.25-0.28,3.35-0.59c0.25-0.08,3.04-1.01,2.99-1.13c-1.39-4.41-3.43-8.9-4.65-13.33
						c-0.22-0.81-0.46-1.67-0.23-2.5L152.37,120.33z"/>
					<path class="st72" d="M166.11,115.06c0.31,0.19,0.48,0.41,0.84,0.58c1.09,0.51,3.16,0.83,4.44,1.21
						c0.99,0.3,3.03,1.54,3.66,0.28c0.47-0.94-0.58-1.85-1.36-2.22c-1.06-0.5-4.26-1.32-5.45-1.52c-0.51-0.07-0.98,0-1.47-0.04
						c-0.54-0.03-0.2-0.47-0.27-0.75c0,0.02-0.16-0.06-0.19,0.28c-0.08,0.72,0.12,1.44-0.19,2.17L166.11,115.06z"/>
					<path class="st73" d="M148.62,108.83l-0.37,0.19c0.12,3.89,0.24,7.77,0.36,11.66l0.38,0.22c0.91-0.1,2.02-0.02,2.9,0.21
						c0.16-0.28,0.28-0.51,0.49-0.76c0.35-0.46,0.42-0.5,0.94-0.75v-1.88l-0.24-0.34c-1.23-0.06-2.43-0.03-3.64,0.2
						c-0.1-0.11-0.12-1.55-0.07-1.62c0.15-0.21,5.41-0.91,4.32,0.78l0.39,0.23c0.05-0.07,0.18-0.12,0.23-0.23
						c0.4-0.87,0.21-2.18,0.19-3.11c-0.01-0.66-0.04-1.25,0.05-1.89c0.08-0.57,0.02-1.18-0.21-1.71c-0.15-0.31-0.31-0.8-0.56-1.04
						c-0.3-0.3-0.64-0.14-1.1-0.13c-1.32,0.04-2.74,0.03-4.05,0V108.83z"/>
					<path class="st25" d="M264.34,93.19c-0.84-0.6-2.77-0.66-3.58,0c-1.19,0.08-2.07,0.06-2.24,1.43c-0.14,1.1-0.14,3.97,0,5.06
						c0.03,0.25,0.15,0.64,0.29,0.85c0.28,0.47,0.88,0.42,0.84,0.96c0.1-0.03,0.25,0.02,0.38,0l0.38-0.29
						c-0.2-0.84,0.02-1.25,0.64-1.23c3.26,0.18,6.55,0.25,9.91,0.24l0.38-0.23c0-2.2,0-4.41,0-6.59c-2.33-0.01-4.63-0.18-6.96-0.19
						L264.34,93.19z"/>
					<path class="st74" d="M260.76,93.19c1.14-0.08,2.42,0,3.58,0l-0.9-2.39c-0.4-1.61,0.85-3.63,2.21-4.39
						c-0.27-1.29,1.24-3.69,0.91-4.77c-0.23-0.78-1.77-0.99-2.23-0.42l-3.56,11.98H260.76z"/>
					<path class="st35" d="M136.76,108.64c-2.82,0-5.65,0-8.46,0c-0.04,2.37,0.13,4.64,0.19,6.97l8.09,0.19
						c0-0.27-0.03-0.56,0.01-0.83c0.25-1.71-0.08-3.49-0.02-5.3C136.58,109.31,136.53,108.95,136.76,108.64z"/>
					<path class="st52" d="M139.01,108.64c0.46,2.35-0.08,4.8,0.38,7.16l5.45-0.19c0.1-0.21,0.19-0.43,0.24-0.66
						c0.24-0.89,0.18-4.72-0.07-5.98l-0.36-0.33c-1.46-0.03-2.72,0-4.14-0.19C140.05,108.39,139.55,108.64,139.01,108.64z"/>
					<path class="st75" d="M125.37,99.03c1.53,0.23,3.78,2.41,4.58,3.7c0.2,0.31,0.64,1.51,0.88,1.58c0.55,0.15,0.86-0.79,1.01-1.14
						c0.5-1.08,1.37-2.04,2.39-2.63c0.95-0.55,2.32-1.19,3.44-1.01c1,0.17,2.42,0.6,3.12,1.4c0.45,0.5,0.91,0.84,1.24,1.48
						c0.24,0.48,0.36,1.03,0.45,1.56c0.17,1.07,0.08,2.29-0.43,3.25c-0.47,0.86-1.37,1.31-2.29,1.52c-1.72,0.37-3.45,0.04-5.16,0.19
						c-2.05,0.19-4.1,0.13-6.15-0.04c0.22,1.26,0.29,2.54,0.33,3.82c0.05,1.44,0.15,2.87,0.14,4.31c0,0.53-0.12,1.06-0.1,1.59
						c0.05,1.1-0.04,2.15,0.06,3.23c0.12,1.27,0.21,2.54,0.28,3.81c0.09,1.68,0.15,3.36,0.18,5.03c0.02,0.83,0.03,1.66,0.04,2.49
						c0,0.39,0,0.79,0,1.18c0,0.27,0.14,0.96,0,1.18l0.11,0.63c-1.56-0.03-3.66-0.15-5.18-0.19l-0.34-0.03
						c-0.11-0.1-0.05-1.13-0.06-1.3c-0.02-0.41-0.04-0.81-0.07-1.23c-0.04-0.78-0.07-1.56-0.11-2.34c-0.07-1.57-0.13-3.16-0.16-4.73
						c-0.05-1.6-0.07-3.19-0.11-4.78c-0.03-1.07-0.18-2.13-0.2-3.2c-0.02-1.1-0.07-2.19-0.13-3.28c-0.04-0.74,0.05-1.48,0.06-2.23
						c0.01-0.68,0.02-1.37,0.03-2.05c0-0.45,0.16-1.24-0.2-1.6c-0.16-0.16-0.38-0.18-0.59-0.21c-1.23-0.19-1.83-1.12-2.64-1.97
						c-2.93-4.42,0.45-8.76,5.54-8H125.37z M122.31,104.37c0.14,0.66,1.07,1.25,1.65,1.55c0.54,0.28,3.88,1.47,4.14,1.22
						c0.27-0.26-0.65-1.9-0.86-2.24c-0.5-0.8-1.7-2.32-2.62-2.47C123.29,102.23,121.97,102.86,122.31,104.37z"/>
					<path class="st76" d="M137.57,103.4c-1.6-0.36-3.21,1.33-3.55,2.78c-0.13,0.55-0.05,0.79,0.58,0.77c0.36,0,2.11-0.51,2.55-0.67
						c0.59-0.21,1.34-0.53,1.5-1.24c0.14-0.62-0.47-1.51-1.07-1.65V103.4z"/>
					<path class="st77" d="M295.96,188.75l0.11,0.16l0.27,0.03c-0.02,0,0.03-0.19-0.38-0.19H295.96z"/>
					<path class="st78" d="M154.07,116.94c-0.1-0.6,0.44-1.21-0.32-1.46c-1.57-0.54-3.77,0.13-5.36,0l0.16,2.47
						c0.75,0.15,1.93-0.22,2.6-0.25c0.59-0.04,1.72,0.13,2.16,0C153.51,117.65,153.92,117.14,154.07,116.94z"/>
					<path class="st79" d="M213.34,115.99c-0.38,0.08-1.87,0.95-2.24,1.24c-0.37,0.29-0.9,0.73-0.95,1.21h-0.28
						c-1.02-1.16-2.93-1.6-4.43-1.51c-0.33-0.76-3.13,0.34-2.82,1.13c-0.58,0.51-1.13,1.3-1.5,1.98c-1.75,0.07-3.39,0.2-4.62,1.59
						c-0.22,0.24-0.69,0.87-0.84,1.13c-0.85,1.49-1.09,3.52-0.38,5.09c0.05,0.13,0.12,0.24,0.2,0.36c0.47,0.63,4.67,1.48,5.71,1.6
						l0.68-0.25c1.43,0.22,2.61,0.15,3.88-0.58c0.18,0.59,0.33,1.08,1.01,1.15l0.55,0.35c5.96,0.49,11.87,0.05,17.59-1.7l0.5-0.54
						c1.89-1.35,0.97-4.08-0.19-5.65c0.21-0.9-1.15-1.69-1.89-2.09c-1.01-0.54-2.15-0.8-3.27-0.93c-0.2-0.79-0.55-1.3-1.06-1.51
						c0.05-0.97-1.89-1.85-2.8-2.16c-0.78-0.28-2.46-0.78-2.84,0.07L213.34,115.99z"/>
					<path class="st80" d="M213.34,115.99c1.99-0.4,4.23,0.76,5.64,2.07l0.53,0.39c2-0.08,3.99-0.05,5.97,0.1
						c0.28,1.06,0.49,2.14,0.63,3.23l0.41,0.22c-0.11,0.59,0.38,0.29,0.57,0.38c0.62,0.54,3.88-2.06,4.05-2.39
						c0.38-0.76-0.33-4.15-0.8-4.87l-0.42-0.1l-0.11-0.74c-0.46-0.92-3.69-2.9-4.78-2.65c-1.51-0.53-5.16-1.18-6.78-1.32
						c-0.83-0.07-2.92-0.13-3.67,0c-1.27,0.21-1.13,2.89-1.22,3.87c-0.08,0.98-0.43,1.18,0,1.79L213.34,115.99z"/>
					<path class="st81" d="M225.39,128.24c-1.62,0.47-3.17,1.01-4.85,1.27c-1.24,0.2-1.97,0.13-3.16,0.41
						c-3.79,0.92-7.1,0-10.62,0.2l-0.42-0.34c-1.48-0.08-2.98-0.16-4.46-0.22c-2.23-0.42-4.5-0.77-6.58-1.7
						c-0.46-0.2-1.15-0.54-1.58-0.78c-0.64-0.36-0.57-0.86-1.61-0.24c-1.97,1.18,0.98,3.19,2.12,3.7
						c7.81,3.57,22.07,3.58,30.24,1.19c1.72-0.51,6.02-2.09,5.37-4.43c-0.22-0.8-0.56-1.13-1.34-0.75c-0.65,0.31-1.56,1.27-2.2,1.56
						c-0.38,0.18-0.65,0.08-0.89,0.15L225.39,128.24z"/>
					<path class="st82" d="M230.1,114.3c-0.44-0.11-0.5,0.14-0.19,0.75c-0.01,0.13,0.45,1.13,0.51,1.45c0.17,0.74,0.6,2.7,0.4,3.32
						l-2.89,2.2l-0.84,0.38c0.84,0.38,2,1.03,2.82,1.5c-0.28-0.33-0.06-0.45,0.19-0.66c0.76-0.68,3.65-2.1,3.86-2.54
						c0.48-0.97-0.35-1.76-0.62-2.59c-0.41-1.29-0.5-2.95-0.84-4.25c-0.3-1.17-0.92-1.27-2.04-1c-0.31,0.2-0.12,0.8-0.19,1.14
						C230.24,114.19,230.11,114.28,230.1,114.3z"/>
					<path class="st83" d="M218.99,118.07l0.78,1.86c2.11,0.19,4.13,0.91,5.43,2.67l1.32-0.57c-0.07-0.64-0.48-3.55-0.88-3.78
						C223.49,117.85,221.18,118.16,218.99,118.07z"/>
					<path class="st8" d="M198.1,136.17l0.18-0.19c-0.06-0.01-0.12,0.01-0.18,0V136.17z"/>
					<path class="st25" d="M144.66,118.07l-5.46,0.19c0.34,2.21,0.13,4.47,0.19,6.69c0.08,3.23,0.49,6.74,0.19,9.99
						c-0.04,0.38-0.39,1.03,0.11,1.23c0.14,0.06,0.54-0.02,0.71,0c0.25,0.02,0.5,0.06,0.75,0.07c0.5,0,1.03-0.08,1.52-0.12
						c0.46-0.03,1.79,0.15,1.97-0.47c0.08-0.3-0.28-0.63-0.41-0.87c-0.22-0.37-0.38-0.78-0.54-1.18c-0.45-1.15-0.64-2.34-0.55-3.57
						c0.09-1.17,0.9-3.07,1.71-3.86c0.07-0.05,0.13-0.1,0.18-0.17c0.2-0.31,0.07-6.87-0.12-7.39c-0.07-0.19-0.15-0.36-0.24-0.54
						L144.66,118.07z"/>
					<path class="st84" d="M144.66,108.64c-0.08,0.78,0.08,1.6,0.1,2.35c0.03,1.53,0.08,3.07,0.1,4.62c0,0.19,0,0.38,0,0.57
						l-0.19,1.7c0,0.06,0,0.13,0,0.19c-0.01,2.32-0.07,4.76,0,7.07c0.01,0.37-0.04,0.73,0.2,1.04c0.16-0.16,0.44-0.19,0.54-0.5
						c0.21-0.68-0.05-2.15,0.31-2.89c0.4-0.82,2.41-1.79,3.3-1.89l-0.38-12.06c-1.28-0.03-2.64-0.16-3.95-0.19L144.66,108.64z"/>
					<path class="st85" d="M202.63,118.07c0.62-0.56,1.99-1.09,2.82-1.13c0.28-1.57,0.64-3.14,0.94-4.71
						c-0.33-0.16-0.11-0.68-0.28-0.95c-0.15-0.25-1.17-0.24-1.48-0.15c-1.16,0.34-1.97,5.21-2.5,6.37l0.49,0.57L202.63,118.07z"/>
					<path class="st86" d="M229.71,100.34l-6.56,7.85c-0.24,0.83,1.59,2.59,1.86,3.46c0.04,0.02,0.12,0.18,0.24,0.23
						c1.84,0.69,3.46,1.52,4.65,3.17c0-0.04,0.15-0.48,0.19-0.75c0.06-0.37-0.03-0.81-0.01-1.19c0.07-2.1,0.48-4.25,1.22-6.22
						c0.36-0.95,0.81-1.89,1.44-2.69c0.28-0.35,0.58-0.68,0.94-0.96c0.21-0.15,1.09-0.48,0.96-0.75c-0.1-0.19-0.48-0.36-0.65-0.49
						c-0.56-0.43-3.38-1.89-3.96-1.81l-0.31,0.15L229.71,100.34z"/>
					<path class="st87" d="M283.15,93.19c-2.04-0.02-4.07,0.01-6.11,0c-0.51,0.08-0.44,0.34-0.47,0.75c0.14,0.46,0.16,1.06,0,1.5
						c0,0.19,0,0.38,0,0.57c0.12,0.25,0.12,0.51,0,0.75c0,0.13,0,0.25,0,0.38c0,0.58,0.03,1.15,0.08,1.73
						c0.05,0.59,0.01,0.84,0.51,1.16c2.28,0.08,4.58,0.19,6.87,0.31c1.79,0.09,2.99,0.13,4.21-1.32c0.58-0.42,0.86-0.81,1.32-1.32
						c0.54-1.08,0.73-3.7-0.26-4.49c-0.58-0.46-5.22-0.67-5.74-0.41c-0.17,0.08-0.32,0.18-0.4,0.37H283.15z"/>
					<path class="st88" d="M260.02,101.48c0.02,0.03,0.03,0.07,0.05,0.1c0.19,0.3,0.68,0.5,0.99,0.58c0.99,0.22,2.02,0.09,3.01,0.09
						c1.52,0,3.02,0.23,4.54,0.18c0.89-0.03,1.8-0.07,2.67,0.2c0-0.88,0-1.76,0-2.64c-0.31-0.22-0.67-0.19-1.03-0.2
						c-2.3-0.07-4.64,0.1-6.94-0.07c-0.65-0.05-3.13-0.7-3.3,0.38C259.96,100.49,259.84,101.08,260.02,101.48L260.02,101.48z"/>
					<path class="st89" d="M287.06,99.88c0.03,0.07,0.01,0.21-0.05,0.44c-0.04,0.16-0.17,1.95,0.1,1.91
						c-0.91,0.13-2.12,0.32-3.01,0.38c-1.44,0.08-2.85-0.15-4.23-0.2c-1.09-0.04-2.2,0.08-3.28,0c-0.03-0.24,0-2.64,0.18-2.63
						c1.35,0.03,2.7-0.04,4.05,0c1.23,0.03,2.55,0.22,3.75,0.2c0.52,0,1.06,0.05,1.59,0c0.45-0.04,0.82-0.32,0.9-0.1L287.06,99.88z"
						/>
					<path class="st90" d="M283.15,93.19c1.36,0.01,4.8-0.24,5.82,0.29c0.25,0.13,0.53,0.47,0.58,0.74c0.18,1.02-0.13,2.42,0,3.49
						c0.22-0.24,0.48-0.5,0.76-0.68c0.02-0.28-0.01-0.55,0-0.82c0.03-1.3-0.15-3.09-0.47-4.34c-0.1-0.41-0.76-2.45-0.95-2.64
						c-0.51-0.54-3.4,0.15-4.24-0.37c0.21,1.66-0.04,2.65-1.26,3.73c-0.24,0.21-0.59,0.16-0.24,0.6V93.19z"/>
					<path class="st35" d="M276.76,99.22c0.03-0.62,0.13-1.61-0.19-2.07C276.57,97.79,276.42,98.74,276.76,99.22z"/>
					<path class="st35" d="M276.57,95.45l0.15-0.12c0.07-0.42,0.07-0.85,0-1.27l-0.15-0.12C276.54,94.45,276.58,94.95,276.57,95.45z
						"/>
					<path class="st35" d="M276.57,96.77l0.57-0.47l-0.57-0.29C276.57,96.27,276.57,96.52,276.57,96.77z"/>
					<path class="st91" d="M207.14,122.79l-1.11-0.02c-0.49-0.78-0.04-3.19-1.39-2.78c-0.28,0.08-0.8,0.77-0.86,1.06
						c-0.11,0.56,1.17,1.44,1.56,1.95c0.25,0.33,0.54,0.79,0.71,1.17c0.18,0.38,0.07,0.95,0.53,1.08c0.15-0.45,0.46-1.04,0.75-1.42
						c0.33-0.43,1.6-1.3,1.67-1.53c0.22-0.74-0.8-2.76-1.73-2.49C206.09,120.14,207.29,122.65,207.14,122.79z"/>
					<path class="st92" d="M214.86,121.65l-1.04-0.36c-0.24-0.94-0.13-3.01-1.5-1.9c-0.68,0.56-0.74,1.23-0.65,2.06
						c1.21,0.19,2.41,0.48,3.47,1.1l1.94-1.75c-0.31-0.81-1.01-2.28-2.09-1.95C214,119.15,214.88,120.93,214.86,121.65z"/>
					<path class="st93" d="M213.41,124.52c-1.02-0.31-1.08,0.35-0.99,1.18c0.08,0.81,0.49,3.06,1.58,2.95
						C215.68,128.48,214.43,124.82,213.41,124.52z"/>
					<path class="st94" d="M201.55,123.18c-1.25-0.24-0.59,2.22-0.38,2.85c0.11,0.32,0.42,1.03,0.7,1.18
						c2.22,1.15,1.18-3.75-0.31-4.04H201.55z"/>
					<path class="st95" d="M221.51,122.99c-1.46-0.43-0.69,3.82,0.24,4.1c1.23,0.37,1.3-1.03,1.15-1.9
						c-0.1-0.58-0.83-2.03-1.39-2.19V122.99z"/>
					<path class="st96" d="M210.59,124.31c-0.8-0.16-1.48,1.52-1.57,2.16c-0.24,1.91,1.61,2.6,2.02,0.71
						c0.06-0.3,0.23-1.4,0.22-1.64c-0.01-0.32-0.34-1.15-0.68-1.22H210.59z"/>
					<path class="st97" d="M199.1,123.17c-1.39-0.39-2.29,3.81-0.71,3.95c0.58,0.06,1.13-0.73,1.21-1.24
						C199.7,125.25,199.79,123.36,199.1,123.17z"/>
					<path class="st98" d="M218.88,126.59c0.63-0.6,0.53-1.89,0.48-2.83c0-0.19-0.11-0.36-0.25-0.47c-0.67-0.48-1.07,0.43-1.27,0.93
						c-0.24,0.65-0.14,1.47,0.04,2.1c0.13,0.44,0.68,0.59,1,0.27V126.59z"/>
					<path class="st99" d="M201.86,129.56c1.81,0.34,3.01,0.67,4.89,0.57c-0.41-0.55-0.73-1.18-0.75-1.89
						c-1.12,0.93-2.67,1.4-4.14,1.32H201.86z"/>
				</g>
			</g>
		</g>
	</g>
</g>
<g>
	<defs>
		<rect id="SVGID_00000006688706553225755550000007248099832059611834_" x="355.55" y="45.64" width="31.97" height="11.99"/>
	</defs>
	<clipPath id="SVGID_00000165957378624371667400000006550558519775438212_">
		<use xlink:href="#SVGID_00000006688706553225755550000007248099832059611834_"  style="overflow:visible;"/>
	</clipPath>
	<g style="clip-path:url(#SVGID_00000165957378624371667400000006550558519775438212_);">
		<g transform="matrix(1, 0, 0, 1, 266, 34)">
			<g>
				<defs>
					<rect id="SVGID_00000129201263347381698380000007974907715170444166_" x="88.67" y="11.33" width="33.33" height="13.33"/>
				</defs>
				<clipPath id="SVGID_00000034087856742613079020000002684403875317652380_">
					<use xlink:href="#SVGID_00000129201263347381698380000007974907715170444166_"  style="overflow:visible;"/>
				</clipPath>
				<g style="clip-path:url(#SVGID_00000034087856742613079020000002684403875317652380_);">
					<g>
						<defs>
							<rect id="SVGID_00000108299202042575159300000013894172147648675980_" x="90" y="16.67" width="31.52" height="6.96"/>
						</defs>
						<clipPath id="SVGID_00000176012032886339117170000016736264998529663362_">
							<use xlink:href="#SVGID_00000108299202042575159300000013894172147648675980_"  style="overflow:visible;"/>
						</clipPath>
						<g style="clip-path:url(#SVGID_00000176012032886339117170000016736264998529663362_);">
							<path class="st103" d="M97.13,21.08c2.7,0.17,5.41,0.26,8.11,0.33c2.65,0.08,5.31,0.18,7.96,0.07
								c1.36-0.05,2.72-0.18,4.07-0.38c1.22-0.18,2.44-0.48,3.37-1.33c0.39-0.35,0.68-0.79,0.85-1.26c0.02,0.06,0.04,0.11,0.06,0.17
								c0.36,1.12-0.06,2.33-0.92,3.11c-0.93,0.85-2.15,1.15-3.37,1.33c-1.35,0.2-2.71,0.33-4.07,0.38
								c-2.65,0.11-5.31,0.01-7.96-0.07c-2.71-0.08-5.41-0.17-8.11-0.33c-2.36-0.15-5.13-0.35-6.52-2.56
								c-0.54-0.85-0.66-1.88-0.37-2.82c0.09,0.28,0.21,0.54,0.37,0.8C92,20.72,94.77,20.93,97.13,21.08z"/>
						</g>
					</g>
					<g>
						<defs>
							<rect id="SVGID_00000165936859378111739100000010811342828768246955_" x="90" y="11.64" width="31.52" height="10.36"/>
						</defs>
						<clipPath id="SVGID_00000029724289921879222040000013023942919503463599_">
							<use xlink:href="#SVGID_00000165936859378111739100000010811342828768246955_"  style="overflow:visible;"/>
						</clipPath>
						<g style="clip-path:url(#SVGID_00000029724289921879222040000013023942919503463599_);">
							<path class="st105" d="M93.13,15.64c0.24-0.02,0.49-0.03,0.74-0.04c0.28-0.01,0.57-0.02,0.76-0.06
								c0.21-0.04,0.42-0.1,0.62-0.18c0.02-0.01,0.05-0.02,0.06-0.03c0.05-0.03,0.11-0.06,0.17-0.09c0.11-0.06,0.22-0.12,0.33-0.19
								c0.4-0.26,0.6-0.43,0.99-0.77c0.4-0.34,0.79-0.68,1.21-0.99c0.92-0.7,1.96-1.12,3.14-1.16c1.27-0.04,2.51,0.34,3.7,0.72
								c1.14,0.36,2.34,0.77,3.55,0.61c1.14-0.14,2.09-0.98,3.23-1.24c2.53-0.59,4.88,0.82,6.65,2.48c0.35,0.33,0.71,0.67,1.03,1.03
								c0.26,0.28,0.64,0.26,0.94,0.46c0.22,0.15,0.34,0.41,0.43,0.67c0.06,0.16,0.1,0.32,0.16,0.48s0.15,0.25,0.24,0.38
								c0.17,0.24,0.31,0.51,0.41,0.78c-0.18,0.47-0.47,0.91-0.85,1.26c-0.93,0.85-2.15,1.16-3.37,1.33
								c-1.35,0.2-2.71,0.33-4.07,0.38c-2.65,0.11-5.31,0.01-7.96-0.07c-2.71-0.08-5.41-0.17-8.11-0.33
								c-2.36-0.15-5.13-0.35-6.52-2.56c-0.16-0.26-0.28-0.52-0.37-0.8c0.04-0.12,0.08-0.24,0.14-0.35
								C90.88,16.23,91.94,15.74,93.13,15.64z"/>
						</g>
					</g>
				</g>
			</g>
		</g>
	</g>
</g>
<g>
	<defs>
		<rect id="SVGID_00000011715428818406229080000001605899257719486625_" x="320.64" y="61.33" width="36.97" height="7.1"/>
	</defs>
	<clipPath id="SVGID_00000037685174523926040790000018260081991459598507_">
		<use xlink:href="#SVGID_00000011715428818406229080000001605899257719486625_"  style="overflow:visible;"/>
	</clipPath>
	<g style="clip-path:url(#SVGID_00000037685174523926040790000018260081991459598507_);">
		<path class="st103" d="M349.3,65.46c-3.12,0.19-6.25,0.3-9.38,0.39c-3.07,0.09-6.14,0.21-9.21,0.08
			c-1.58-0.06-3.15-0.21-4.71-0.44c-1.4-0.21-2.82-0.56-3.9-1.56c-0.44-0.41-0.78-0.92-0.98-1.47c-0.03,0.07-0.05,0.14-0.07,0.2
			c-0.42,1.31,0.06,2.72,1.05,3.64c1.07,0.99,2.49,1.34,3.9,1.56c1.56,0.23,3.14,0.38,4.71,0.44c3.07,0.13,6.14,0.01,9.21-0.09
			c3.13-0.09,6.26-0.19,9.38-0.39c2.73-0.17,5.93-0.41,7.54-2.99c0.62-0.99,0.77-2.19,0.42-3.29c-0.1,0.32-0.24,0.64-0.42,0.93
			C355.23,65.05,352.03,65.29,349.3,65.46z"/>
	</g>
</g>
<g>
	<defs>
		<rect id="SVGID_00000112609664636553480660000002549097410326883246_" x="320.64" y="54.67" width="36.7" height="12"/>
	</defs>
	<clipPath id="SVGID_00000109020159148218268710000002094717328962909338_">
		<use xlink:href="#SVGID_00000112609664636553480660000002549097410326883246_"  style="overflow:visible;"/>
	</clipPath>
	<g style="clip-path:url(#SVGID_00000109020159148218268710000002094717328962909338_);">
		<path class="st105" d="M353.94,59.11c-0.29-0.03-0.57-0.03-0.86-0.05c-0.32-0.01-0.65-0.03-0.88-0.07
			c-0.24-0.04-0.48-0.11-0.71-0.2c-0.02-0.01-0.06-0.03-0.07-0.03c-0.07-0.04-0.14-0.07-0.2-0.1c-0.13-0.07-0.26-0.15-0.39-0.22
			c-0.46-0.3-0.7-0.51-1.15-0.9c-0.46-0.4-0.91-0.8-1.4-1.17c-1.07-0.82-2.27-1.31-3.64-1.35c-1.46-0.04-2.9,0.4-4.28,0.85
			c-1.32,0.42-2.71,0.89-4.11,0.72c-1.31-0.17-2.42-1.15-3.74-1.46c-2.92-0.69-5.65,0.96-7.69,2.9c-0.41,0.39-0.82,0.79-1.19,1.21
			c-0.29,0.33-0.73,0.31-1.08,0.54c-0.26,0.17-0.4,0.48-0.5,0.78c-0.06,0.19-0.11,0.38-0.18,0.56c-0.07,0.18-0.17,0.29-0.28,0.44
			c-0.2,0.28-0.36,0.59-0.48,0.92c0.2,0.55,0.54,1.06,0.98,1.47c1.07,0.99,2.49,1.34,3.9,1.56c1.56,0.23,3.14,0.38,4.71,0.44
			c3.07,0.13,6.14,0.01,9.21-0.08c3.13-0.09,6.26-0.2,9.38-0.39c2.73-0.17,5.93-0.41,7.54-2.99c0.18-0.29,0.32-0.6,0.42-0.93
			c-0.04-0.14-0.09-0.28-0.15-0.42C356.54,59.81,355.3,59.23,353.94,59.11z"/>
	</g>
</g>
<g transform="matrix(1, 0, 0, 1, 58, 30)">
	<g>
		<defs>
			<rect id="SVGID_00000173846096713155070860000011628085909311276980_" x="19.33" y="10" width="248" height="112"/>
		</defs>
		<clipPath id="SVGID_00000044882789264077618240000003596876207228410496_">
			<use xlink:href="#SVGID_00000173846096713155070860000011628085909311276980_"  style="overflow:visible;"/>
		</clipPath>
		<g style="clip-path:url(#SVGID_00000044882789264077618240000003596876207228410496_);">
			<g>
				<g transform="translate(0.146966, 35.70627)">
					<g>
						<path class="st109" d="M22.34,4.8h53.08v16.75H38.15v1.48h37.27v7.73H22.34V13.94h37.27v-1.48H22.34V4.8z M59.51-7.08h-1.77
							v10.4c-1.78-0.15-3.54-0.42-5.27-0.79c-1.72-0.38-3.37-0.9-4.94-1.58c-1.57-0.69-3.05-1.58-4.44-2.67
							c-1.38-1.08-2.59-2.43-3.65-4.04c-1.07,1.61-2.29,2.96-3.67,4.04s-2.85,1.97-4.42,2.67c-1.57,0.68-3.22,1.21-4.96,1.58
							c-1.74,0.38-3.49,0.64-5.25,0.79v-13.75c1.46-0.28,2.81-0.66,4.06-1.15c1.26-0.5,2.35-1.19,3.27-2.06
							c0.93-0.89,1.66-2.03,2.19-3.42c0.54-1.4,0.81-3.12,0.81-5.17v-0.12H47.4v0.12c0,2.99,0.54,5.29,1.62,6.9
							c1.08,1.61,2.51,2.81,4.27,3.6v-7.08h6.21v-3.54h15.92V3.03H59.51V-7.08z"/>
					</g>
				</g>
			</g>
			<g>
				<g transform="translate(43.506647, 35.70627)">
				</g>
			</g>
			<g>
				<g transform="translate(55.010211, 35.70627)">
					<g>
						<path class="st109" d="M40.63-22.35h33.62v2.96h3.54v-2.96h15.92V5.38H77.8v-3h-3.54v3H40.63V-22.35z M83.05,7.15
							c3.69,0,6.59,0.97,8.69,2.9c2.11,1.93,3.17,4.9,3.17,8.9c0,4.01-1.06,6.98-3.17,8.92c-2.1,1.93-4.99,2.9-8.69,2.9H52.48
							c-3.7,0-6.6-0.97-8.71-2.9c-2.1-1.93-3.15-4.91-3.15-8.92c0-4,1.05-6.96,3.15-8.9c2.11-1.93,5.01-2.9,8.71-2.9H83.05z
							 M77.9,19.84c0.28,0,0.52-0.05,0.73-0.17c0.22-0.12,0.33-0.36,0.33-0.73c0-0.34-0.11-0.57-0.33-0.69
							c-0.21-0.12-0.45-0.19-0.73-0.19H57.61c-0.28,0-0.53,0.06-0.75,0.19c-0.21,0.11-0.31,0.34-0.31,0.69c0,0.36,0.1,0.6,0.31,0.73
							c0.22,0.11,0.47,0.17,0.75,0.17H77.9z M56.55-4.35h1.77v-7.67h-1.77V-4.35z M74.25-7.01h3.54v-3h-3.54V-7.01z"/>
					</g>
				</g>
			</g>
			<g>
				<g transform="translate(98.369886, 35.70627)">
					<g>
						<path class="st109" d="M55.08,3.61h53.08v17.52H70.89v1.54h37.27v8.08H55.08V13.17h37.27v-1.54H55.08V3.61z M92.25-3.54h-2.96
							v5.96c-1.77-0.03-3.49-0.16-5.17-0.4c-1.67-0.23-3.25-0.61-4.75-1.15c-1.49-0.54-2.89-1.24-4.21-2.1
							c-1.32-0.86-2.51-1.98-3.56-3.38c-1.07,1.39-2.27,2.52-3.58,3.38c-1.32,0.86-2.73,1.56-4.23,2.1
							c-1.49,0.53-3.07,0.91-4.75,1.15c-1.67,0.24-3.39,0.37-5.15,0.4V-8.43c1.89-0.19,3.53-0.51,4.92-0.94
							c1.4-0.43,2.51-1.23,3.33-2.42h-7.9v-10.56h34.69v5.9h3.31v-5.9h15.92V2.42H92.25V-3.54z M81.04-11.79
							c0.67,0.95,1.52,1.65,2.56,2.1c1.04,0.45,2.25,0.79,3.63,1.02v-3.12H81.04z"/>
					</g>
				</g>
			</g>
			<g>
				<g transform="translate(0.146966, 71.907995)">
					<g>
						<path class="st109" d="M33.11,31.01h27.02v9.4h-38.6V25.39h11.58V31.01z M47.26,24.32c-1.28-0.12-2.55-0.32-3.81-0.58
							c-1.25-0.28-2.45-0.67-3.6-1.17c-1.14-0.5-2.21-1.14-3.21-1.92c-1-0.79-1.89-1.77-2.67-2.94c-0.78,1.17-1.67,2.15-2.67,2.94
							c-1,0.78-2.07,1.42-3.21,1.92c-1.14,0.5-2.34,0.89-3.6,1.17c-1.27,0.27-2.54,0.46-3.81,0.58v-10
							c1.05-0.19,2.04-0.47,2.96-0.83c0.92-0.36,1.71-0.86,2.38-1.5c0.68-0.65,1.21-1.48,1.58-2.5c0.39-1.01,0.58-2.26,0.58-3.75
							V1.8h11.58v3.94c0,1.49,0.19,2.74,0.58,3.75c0.39,1.02,0.92,1.85,1.58,2.5c0.67,0.64,1.46,1.14,2.38,1.5
							c0.92,0.36,1.9,0.64,2.96,0.83V24.32z M44.05,3.95h4.5V1.8h11.58v27.92H48.55V12.47h-4.5V3.95z"/>
					</g>
				</g>
			</g>
			<g>
				<g transform="translate(31.680721, 71.907995)">
					<g>
						<path class="st109" d="M32.04,23.89h13.52v-1.29H31.6v-6.25h39.48v6.25H57.12v1.29h13.52v10.65h-27.1v1.06h27.1v4.81h-38.6
							V29.76h27.1V28.7h-27.1V23.89z M32.04,1.8h38.6v13.25h-38.6V1.8z M43.62,9.05h15.44V7.76H43.62V9.05z"/>
					</g>
				</g>
			</g>
			<g>
				<g transform="translate(63.214477, 71.907995)">
				</g>
			</g>
			<g>
				<g transform="translate(71.580549, 71.907995)">
					<g>
						<path class="st109" d="M45.34,1.8h24.88v6.44h2.15V1.8h11.58v38.6H72.36V17.64h-2.15v6.04H45.34V1.8z M52.19,35.22H44.9V24.97
							h26.17v10.25h-7.29v5.19H52.19V35.22z M56.71,15.09h2.15v-4.71h-2.15V15.09z"/>
					</g>
				</g>
			</g>
			<g>
				<g transform="translate(103.11431, 71.907995)">
					<g>
						<path class="st109" d="M81.33,30.07c0,3.6-1.08,6.21-3.25,7.85c-2.16,1.65-5.41,2.48-9.75,2.48c-4.41,0-7.69-0.83-9.85-2.48
							c-2.16-1.64-3.23-4.26-3.23-7.85v-3.31c0-3.62,1.07-6.26,3.23-7.9c2.17-1.65,5.45-2.48,9.85-2.48c4.34,0,7.59,0.83,9.75,2.48
							c2.17,1.64,3.25,4.27,3.25,7.9V30.07z M82.87,1.8h11.58v14.15h2.15v9.4h-2.15v15.06H82.87V1.8z M54.83,15.05V4.8h7.67V0.95
							h11.58V4.8h7.69v10.25H54.83z M69.14,25.47c0-0.19-0.05-0.4-0.15-0.6c-0.1-0.22-0.33-0.33-0.71-0.33s-0.61,0.11-0.71,0.33
							c-0.1,0.21-0.15,0.41-0.15,0.6v5.83c0,0.21,0.05,0.43,0.15,0.65c0.09,0.21,0.33,0.31,0.71,0.31s0.61-0.1,0.71-0.31
							c0.09-0.22,0.15-0.44,0.15-0.65V25.47z"/>
					</g>
				</g>
			</g>
			<g>
				<g transform="translate(134.64806, 71.907995)">
					<g>
						<path class="st109" d="M84.59,12.05v9.77c0,1.49,0.19,2.74,0.58,3.77c0.39,1.02,0.92,1.84,1.58,2.48
							c0.67,0.64,1.46,1.14,2.38,1.5c0.92,0.36,1.9,0.64,2.96,0.83v10c-1.28-0.14-2.55-0.35-3.81-0.62
							c-1.25-0.28-2.45-0.66-3.6-1.15c-1.14-0.49-2.21-1.12-3.21-1.92c-1-0.78-1.89-1.75-2.67-2.92c-0.78,1.17-1.67,2.14-2.67,2.92
							c-1,0.79-2.07,1.43-3.21,1.92c-1.14,0.48-2.34,0.86-3.6,1.15c-1.27,0.28-2.54,0.48-3.81,0.62v-10
							c1.05-0.19,2.04-0.47,2.96-0.83c0.92-0.36,1.71-0.86,2.38-1.5c0.68-0.64,1.21-1.46,1.58-2.48c0.39-1.03,0.58-2.28,0.58-3.77
							v-9.77h-7.25V1.8h26.08v10.25H84.59z M93.38,1.8h11.58v38.6H93.38V1.8z"/>
					</g>
				</g>
			</g>
			<g>
				<g transform="translate(166.18181, 71.907995)">
					<g>
						<path class="st109" d="M80.23,28.18v-2.67c0-1.33,0.2-2.53,0.6-3.6c0.42-1.08,0.93-2.05,1.54-2.92
							c0.62-0.88,1.28-1.65,1.96-2.31c0.69-0.68,1.3-1.3,1.81-1.87c0.36-0.4,0.66-0.75,0.9-1.04c0.25-0.3,0.38-0.65,0.38-1.02
							c0-0.54-0.18-0.89-0.54-1.04c-0.35-0.17-0.77-0.25-1.25-0.25c-0.49,0-1.08,0.04-1.77,0.1c-0.68,0.07-1.42,0.2-2.21,0.38
							c-0.78,0.17-1.58,0.39-2.42,0.65c-0.83,0.25-1.62,0.56-2.35,0.94v-9.6c1.43-0.8,3.07-1.45,4.94-1.94
							c1.86-0.48,3.69-0.73,5.48-0.73c2.12,0,3.93,0.25,5.42,0.75c1.48,0.5,2.7,1.2,3.65,2.1c0.94,0.91,1.64,1.97,2.08,3.19
							c0.44,1.21,0.67,2.54,0.67,4c0,1.32-0.21,2.47-0.62,3.44c-0.42,0.97-0.94,1.85-1.56,2.62c-0.61,0.77-1.28,1.47-2,2.1
							c-0.71,0.64-1.37,1.3-1.98,1.98c-0.61,0.67-1.12,1.39-1.54,2.17c-0.42,0.77-0.62,1.65-0.62,2.65v1.94H80.23z M85.5,40.93
							c-0.86,0-1.66-0.15-2.38-0.44c-0.71-0.29-1.31-0.7-1.79-1.21c-0.49-0.52-0.87-1.12-1.15-1.81c-0.27-0.68-0.4-1.42-0.4-2.21
							c0-0.78,0.12-1.51,0.38-2.19c0.26-0.69,0.65-1.29,1.15-1.79s1.09-0.9,1.77-1.19c0.69-0.3,1.47-0.46,2.33-0.46
							c0.89,0,1.69,0.16,2.4,0.46c0.71,0.29,1.3,0.69,1.79,1.19c0.48,0.5,0.86,1.1,1.15,1.79c0.28,0.68,0.42,1.41,0.42,2.19
							c0,0.79-0.14,1.53-0.4,2.21c-0.25,0.69-0.64,1.3-1.15,1.81c-0.5,0.51-1.1,0.92-1.79,1.21C87.13,40.78,86.36,40.93,85.5,40.93z
							"/>
					</g>
				</g>
			</g>
		</g>
	</g>
</g>
<g transform="matrix(1, 0, 0, 1, 79, 127)">
	<g>
		<defs>
			<rect id="SVGID_00000006673128887286531750000015194672481164198846_" x="26.33" y="42.33" width="152" height="61.33"/>
		</defs>
		<clipPath id="SVGID_00000004521132872038279900000012171482351916552382_">
			<use xlink:href="#SVGID_00000006673128887286531750000015194672481164198846_"  style="overflow:visible;"/>
		</clipPath>
		<g style="clip-path:url(#SVGID_00000004521132872038279900000012171482351916552382_);">
			<g>
				<g transform="translate(2.49031, 15.40541)">
					<g>
						<path class="st109" d="M28.37,29.36h13.77v1.21h1.44v-1.21h6.52V40.7h-6.52v-1.23h-1.44v1.23H28.37V29.36z M45.73,41.43
							c1.51,0,2.7,0.4,3.56,1.19c0.86,0.79,1.29,2.01,1.29,3.65c0,1.64-0.43,2.85-1.29,3.65c-0.86,0.79-2.05,1.19-3.56,1.19h-12.5
							c-1.52,0-2.7-0.4-3.56-1.19c-0.86-0.79-1.29-2.01-1.29-3.65c0-1.64,0.43-2.85,1.29-3.65c0.86-0.79,2.05-1.19,3.56-1.19H45.73z
							 M43.62,46.61c0.12,0,0.23-0.02,0.31-0.06c0.08-0.05,0.12-0.15,0.12-0.29c0-0.14-0.04-0.23-0.12-0.27
							c-0.08-0.05-0.19-0.08-0.31-0.08h-8.29c-0.11,0-0.22,0.03-0.31,0.08c-0.08,0.04-0.12,0.14-0.12,0.27
							c0,0.14,0.04,0.24,0.12,0.29c0.09,0.04,0.2,0.06,0.31,0.06H43.62z M34.89,36.72h0.73v-3.12h-0.73V36.72z M42.14,35.64h1.44
							v-1.23h-1.44V35.64z"/>
					</g>
				</g>
			</g>
			<g>
				<g transform="translate(19.190965, 15.40541)">
					<g>
						<path class="st109" d="M33.94,39.99h21.73v7.17H40.42v0.62h15.25v3.31H33.94v-7.21h15.25v-0.62H33.94V39.99z M49.15,37.05
							h-1.21v2.46c-0.72-0.03-1.43-0.09-2.12-0.19c-0.68-0.09-1.33-0.25-1.94-0.46c-0.61-0.22-1.19-0.51-1.73-0.85
							c-0.53-0.36-1.02-0.82-1.46-1.38c-0.43,0.56-0.92,1.02-1.46,1.38c-0.53,0.35-1.1,0.64-1.73,0.85
							c-0.61,0.21-1.26,0.36-1.94,0.46c-0.68,0.1-1.39,0.16-2.1,0.19v-4.46c0.76-0.08,1.43-0.21,2-0.38c0.58-0.18,1.04-0.51,1.38-1
							h-3.23v-4.31h14.19v2.42h1.35v-2.42h6.52v10.15h-6.52V37.05z M44.56,33.68c0.28,0.39,0.62,0.68,1.04,0.88
							c0.43,0.18,0.93,0.32,1.5,0.42v-1.29H44.56z"/>
					</g>
				</g>
			</g>
			<g>
				<g transform="translate(35.891621, 15.40541)">
				</g>
			</g>
			<g>
				<g transform="translate(39.550324, 15.40541)">
					<g>
						<path class="st109" d="M55.93,47.93H40.73v-5.29h21.73v8.46h-6.52V47.93z M55.2,42.03c-0.72-0.05-1.44-0.16-2.15-0.31
							c-0.71-0.15-1.39-0.36-2.04-0.65c-0.64-0.29-1.24-0.66-1.81-1.1c-0.56-0.44-1.05-0.99-1.48-1.65c-0.43,0.66-0.93,1.2-1.5,1.65
							c-0.56,0.45-1.16,0.81-1.81,1.1c-0.64,0.28-1.31,0.49-2.02,0.65c-0.71,0.16-1.43,0.26-2.15,0.31v-5.62
							c0.59-0.11,1.15-0.26,1.67-0.46c0.51-0.21,0.96-0.49,1.33-0.85c0.38-0.36,0.67-0.82,0.9-1.4c0.22-0.57,0.33-1.28,0.33-2.13
							v-2.21H51v2.21c0,0.85,0.1,1.56,0.31,2.13c0.22,0.57,0.52,1.04,0.9,1.4c0.38,0.36,0.82,0.65,1.33,0.85
							c0.51,0.2,1.07,0.35,1.67,0.46V42.03z M55.93,29.36h6.52v12.52h-6.52V29.36z"/>
					</g>
				</g>
			</g>
			<g>
				<g transform="translate(56.25098, 15.40541)">
					<g>
						<path class="st109" d="M46.29,42.97h7.6v-0.71h-7.85v-3.85h22.23v3.85h-7.85v0.71h7.6v8.12H46.29V42.97z M46.29,37.7v-3.79
							h2.42v-0.73h-2.42v-3.79h21.73v3.79H65.6v0.73h2.42v3.79H46.29z M52.81,47.41h8.69v-0.73h-8.69V47.41z M55.23,33.91h3.85
							v-0.73h-3.85V33.91z"/>
					</g>
				</g>
			</g>
			<g>
				<g transform="translate(72.951636, 15.40541)">
				</g>
			</g>
			<g>
				<g transform="translate(76.610339, 15.40541)">
					<g>
						<path class="st109" d="M59.6,45.8h15.21v5.29H53.08v-8.46h6.52V45.8z M67.56,42.03c-0.72-0.05-1.44-0.16-2.15-0.31
							c-0.71-0.15-1.39-0.36-2.04-0.65c-0.64-0.29-1.24-0.66-1.81-1.1c-0.56-0.44-1.05-0.99-1.48-1.65c-0.43,0.66-0.93,1.2-1.5,1.65
							c-0.56,0.45-1.16,0.81-1.81,1.1c-0.64,0.28-1.31,0.49-2.02,0.65c-0.71,0.16-1.43,0.26-2.15,0.31v-5.62
							c0.59-0.11,1.15-0.26,1.67-0.46c0.51-0.21,0.96-0.49,1.33-0.85c0.38-0.36,0.67-0.82,0.9-1.4c0.22-0.57,0.33-1.28,0.33-2.13
							v-2.21h6.52v2.21c0,0.85,0.1,1.56,0.31,2.13c0.22,0.57,0.52,1.04,0.9,1.4c0.38,0.36,0.82,0.65,1.33,0.85
							c0.51,0.2,1.07,0.35,1.67,0.46V42.03z M65.75,30.57h2.54v-1.21h6.52v15.71h-6.52v-9.71h-2.54V30.57z"/>
					</g>
				</g>
			</g>
			<g>
				<g transform="translate(93.310994, 15.40541)">
					<g>
						<path class="st109" d="M58.65,41.8h7.6v-0.73H58.4v-3.52h22.23v3.52h-7.85v0.73h7.6v5.98H65.12v0.6h15.25v2.71H58.65v-6H73.9
							v-0.6H58.65V41.8z M58.65,29.36h21.73v7.46H58.65V29.36z M65.17,33.45h8.69v-0.73h-8.69V33.45z"/>
					</g>
				</g>
			</g>
			<g>
				<g transform="translate(21.019963, 38.389488)">
					<g>
						<path class="st109" d="M34.3,58.75v-5.77h7.85v-1.25h-7.6V37.03h6.52v1.79h8.69v-1.79h6.52v14.71h-7.6v1.25h7.85v5.77H34.3z
							 M49.76,44.34h-8.69v1.83h8.69V44.34z"/>
					</g>
				</g>
			</g>
			<g>
				<g transform="translate(37.720619, 38.389488)">
					<g>
						<path class="st109" d="M46.64,53.05h6.75v5.71H40.12V45.05h6.75v-2.33h-6.75v-5.69h13.27v13.71h-6.75V53.05z M53.89,44.34
							h1.44v-7.31h6.52v21.73h-6.52v-9.12h-1.44V44.34z"/>
					</g>
				</g>
			</g>
			<g>
				<g transform="translate(54.421274, 38.389488)">
				</g>
			</g>
			<g>
				<g transform="translate(58.079977, 38.389488)">
					<g>
						<path class="st109" d="M46.65,52.8c1.3-0.08,2.45-0.26,3.44-0.52c0.98-0.26,1.8-0.67,2.46-1.21c0.65-0.55,1.14-1.26,1.46-2.12
							c0.33-0.86,0.5-1.94,0.5-3.23V42.8h-7.6v-5.77h14.48v8.52c0,4.43-1.26,7.74-3.77,9.92c-2.5,2.19-6.16,3.29-10.96,3.29V52.8z
							 M62.11,37.03h6.52v7.96h1.21v5.29h-1.21v8.48h-6.52V37.03z"/>
					</g>
				</g>
			</g>
			<g>
				<g transform="translate(74.780633, 38.389488)">
					<g>
						<path class="st109" d="M52.22,52.8c1.3-0.08,2.45-0.26,3.44-0.52c0.98-0.26,1.8-0.67,2.46-1.21c0.65-0.55,1.14-1.26,1.46-2.12
							c0.33-0.86,0.5-1.94,0.5-3.23V42.8h-7.6v-5.77h14.48v8.52c0,4.43-1.26,7.74-3.77,9.92c-2.5,2.19-6.16,3.29-10.96,3.29V52.8z
							 M67.68,37.03h6.52v21.73h-6.52V37.03z"/>
					</g>
				</g>
			</g>
			<g>
				<defs>
					<rect id="SVGID_00000036244272423235122730000004347647407292912017_" x="27.15" y="67.67" width="150.9" height="4"/>
				</defs>
				<clipPath id="SVGID_00000101086906042097446310000006125807247699985809_">
					<use xlink:href="#SVGID_00000036244272423235122730000004347647407292912017_"  style="overflow:visible;"/>
				</clipPath>
				<g style="clip-path:url(#SVGID_00000101086906042097446310000006125807247699985809_);">
					<path class="st112" d="M28.49,69.86h148.21"/>
				</g>
			</g>
			<path class="st112" d="M56.47,100.62h92.27"/>
		</g>
	</g>
</g>
</svg>
